<?xml version="1.0" standalone="yes"?>
<svg xmlns="http://www.w3.org/2000/svg" width="1280" height="1041">
<path style="fill:#fafaf8; stroke:none;" d="M0 0L0 538C3.67617 533.491 6.25349 528.641 10.615 524.599C12.2039 523.126 14.3348 521.024 16.686 522.211C20.1906 523.979 19.1289 531.679 19.7685 534.961C21.623 544.477 25.8926 557.574 31.3596 565.572C36.021 572.391 40.9273 580.847 47.3102 586.164C68.784 604.054 95.6101 610 123 610C134.719 610 146.716 609.464 157.83 605.204C183.064 595.531 206.529 582.753 227.996 566.251C255.51 545.1 279.361 518.477 301.68 492.086C309.18 483.218 317.727 475.181 325.299 466.286C342.379 446.219 358.527 425.499 376.6 406.339C390.66 391.433 404.221 375.267 417.481 359.6C423.219 352.821 429.134 342.225 437 338C439.515 329.501 450.449 321.638 456.21 314.914C472.135 296.326 488.128 277.473 504.79 259.561C520.407 242.773 534.924 221.44 554.914 209.529C563.739 204.271 573.684 201.159 583 196.985C600.082 189.333 617.372 181.34 636 178.325C643.526 177.107 651.409 178.43 659 177.911C678.641 176.565 698.465 176.387 718 179.439C728.289 181.047 738.035 184.458 748 187.29C781.268 196.745 813.516 211.509 841.83 231.425C850.118 237.255 856.835 244.432 864.095 251.424C876.505 263.377 889.058 275.655 899.961 289.025C905.696 296.057 911.417 303.089 917.197 310.086C920.836 314.491 924.041 319.107 929.015 322.16C935.719 326.277 944.8 327.514 952.424 328.861C966.745 331.391 980.401 333.349 995 332.985C1019.09 332.386 1040.23 316.587 1055.5 299.199C1059.77 294.339 1071.35 282.838 1064.26 275.742C1061.98 273.46 1057.92 274.036 1055 273.996C1050.2 273.931 1045.66 272.959 1041 271.881C1025.73 268.347 1011.8 261.923 999.819 251.768C989.945 243.399 984.562 230.065 978.475 218.95C975.988 214.409 971.592 207.954 979.019 205.724C985.585 203.752 994.2 204.782 1001 204.95C1014.59 205.285 1028.32 206.897 1041 212.336C1059.45 220.252 1074.34 234.014 1091.96 243.231C1114.52 255.036 1138.21 262.205 1162 270.782C1177.89 276.511 1193.87 282.597 1210 287.62C1220.32 290.833 1230.65 294.313 1241 297.381C1248.63 299.643 1256.52 300.397 1263.99 303.475C1269.6 305.79 1274.62 309.273 1280 312L1280 0L0 0z"/>
<path style="fill:#ffaa28; stroke:none;" d="M662 177C665.959 178.661 670.74 178 675 178L700 178C696.042 176.339 691.26 177 687 177L662 177z"/>
<path style="fill:#fdc36c; stroke:none;" d="M634 178L635 179L634 178z"/>
<path style="fill:#fbd69e; stroke:none;" d="M635 178C638.959 179.661 643.737 179 648 179C644.041 177.339 639.263 178 635 178z"/>
<path style="fill:#ff9900; stroke:none;" d="M16 520C-1.7574 531.903 -1.21374 551.872 0.834105 571C1.83921 580.388 3.40245 589.463 7.74537 597.95C11.7169 605.711 15.9505 614.555 21.7739 621.115C45.5454 647.891 88.1256 660.299 123 657.911C133.415 657.197 143.676 655.328 154 654.173C163.801 653.076 173.609 652.555 183 649.201C203.981 641.71 220.78 626.085 238.996 613.76C279.497 586.356 319.556 558.1 360.155 530.935C370.932 523.724 382.493 517.482 392.91 509.721C408.271 498.277 422.491 485.03 442.001 482.299C459.127 479.903 470.417 488.741 484 497.715C490.22 501.825 496.777 505.298 503 509.406C530.103 527.297 558.497 542.958 590 551.575C603.72 555.328 618.122 557.736 632 561.102C641.769 563.471 650.746 565.503 658.96 571.833C670.314 580.583 673.899 596.639 679.424 609.075C681.308 613.313 683.353 620.236 687 623C686.346 630.194 690.579 636.842 693.343 643.286C696.404 650.42 698.708 658.636 700.914 666.089C707.325 687.762 712.349 709.909 716.836 731.911C719.39 744.436 722.978 758.131 723 771C723.031 789.425 719.093 812.7 735.428 825.532C742.074 830.753 750.205 831.258 758 833.48C766.651 835.946 774.986 840.182 783.576 842.989C819.137 854.61 855.153 865.721 888 883.94C904.927 893.328 922.068 902.144 938.424 912.539C948.457 918.915 957.429 927.398 969 931.098C977.385 933.779 987.266 932.999 996 933C1007.17 933.001 1017.87 934.368 1029 932.562C1034.73 931.631 1039.52 929.006 1045 927.427C1052.3 925.325 1057.94 929.769 1065 925L1065 923C1058.21 915.521 1051.05 908.067 1044.16 900.536C1029.81 884.843 1017.21 868.63 998 858.309C962.913 839.455 922.336 837.988 885 825.596C867.355 819.739 852.069 808.993 836.718 798.836C831.069 795.099 824.596 792.681 819.015 788.784C809.677 782.264 805.702 771.852 800.997 762C794.863 749.157 787.923 736.165 782.831 722.911C780.667 717.277 777.932 711.584 775.985 705.911C774.765 702.359 775.042 698.46 772 696C772.896 685.663 767.979 673.754 765.458 663.83C762.426 651.896 761.534 637.46 760.87 625.17C760.558 619.409 760.011 613.789 760 608C759.994 604.895 760.407 602.103 758 600C759.497 597.839 760.063 596.8 758 595C759.362 591.783 760.922 588.57 758 586C759.534 584.978 759.402 585.195 760 584C757.071 578.733 758.337 572.8 757.576 567C756.418 558.185 754.202 546.622 757.248 538.039C764.376 517.961 789.655 506.905 809 504.834C820.191 503.636 841.142 502.961 849.427 512.34C855.378 519.076 849.58 533.282 848.17 541C845.133 557.616 842.457 574.421 839.7 591C838.332 599.227 834.631 606.398 836 615C833.235 617.376 833.722 621.807 829.891 623.397C823.426 626.08 808.648 621.193 805.032 629.225C803.153 633.397 803.576 638.498 802.745 642.911C801.904 647.372 799.564 652.086 801.988 656.561C808.758 669.059 824.983 665.257 836 663.959C842.435 663.201 850.188 662.05 855.316 657.695C863.77 650.515 867.291 635.854 871.569 626.001C876.169 615.409 882.44 605.892 888.127 595.911C893.335 586.772 897.762 576.816 904.692 568.76C915.135 556.621 927.508 544.24 941 535.547C952.154 528.361 965.172 525.509 977 519.826C998.085 509.697 1018.72 496.007 1036.42 480.7C1052.98 466.384 1064.05 444.582 1076.26 426.714C1082.62 417.397 1090.89 409.634 1099.13 402.029C1105.94 395.749 1112.62 388.983 1120.46 383.985C1143.75 369.139 1173.52 362.688 1201 362.015C1227.17 361.374 1259.26 367.194 1275.25 340.572C1279.14 334.093 1282.89 319.351 1278.43 312.478C1276.02 308.762 1270.84 306.342 1266.83 304.796C1255.03 300.25 1242.31 298.024 1230.29 294.29C1213.99 289.229 1198.18 282.887 1182 277.619C1166.8 272.669 1151.27 268.705 1136.29 263.265C1120.25 257.447 1102.65 250.411 1088.25 241.289C1075.47 233.199 1063.56 223.504 1049.93 216.782C1031.79 207.838 1014.07 204.838 994 205.87C989.603 206.096 980.186 204.17 976.604 207.028C974.253 208.904 975.395 212.379 976.515 214.575C979.684 220.792 982.964 226.833 986.506 232.845C989.297 237.582 991.369 242.729 994.959 246.95C1006.29 260.276 1023.42 267.096 1040 270.88C1047.39 272.568 1066.48 270.36 1066.8 281.004C1066.94 285.867 1063.87 289.316 1061.07 292.905C1054.96 300.745 1047.21 306.38 1040.2 313.264C1016.91 336.126 983.935 337.07 954 329.742C946.939 328.014 936.886 327.123 930.665 323.407C923.655 319.219 918.356 311.323 913.252 305.13C904.193 294.14 894.537 283.802 885.33 272.955C876.972 263.108 867.151 254.426 857.895 245.424C853.531 241.18 850.355 235.981 844 235L844 232C835.172 229.729 827.638 221.79 819.844 217.21C806.574 209.411 791.383 202.338 776.996 196.937C754.948 188.66 730.534 180.411 707 178.17C695.188 177.045 682.865 178 671 178C659.158 178 646.708 177.43 635 179.325C619.569 181.822 606.029 187.789 591.83 193.739C581.321 198.143 570.128 201.659 560 206.975C543.205 215.789 531.319 230.981 518.765 244.576C497.619 267.473 477.197 291.011 456.83 314.579C420.738 356.342 382.91 396.769 347.372 439.036C308.876 484.821 270.837 530.298 225.026 568.982C221.713 571.78 217.545 573.343 214.015 575.863C191.871 591.677 164.453 607.145 137 610.711C119.333 613.005 100.798 610.538 84 605.194C69.5417 600.595 54.8433 594.972 44.0903 583.486C34.7213 573.479 26.8096 560.004 22.4645 546.961C19.502 538.068 19.3443 528.782 16 520z"/>
<path style="fill:#fdb74e; stroke:none;" d="M631 179C632.248 179.685 632.548 179.749 634 180C632.752 179.315 632.452 179.251 631 179z"/>
<path style="fill:#f9d59f; stroke:none;" d="M717.667 179.333C717.222 179.778 718.278 179.722 718.333 179.667C718.778 179.222 717.722 179.278 717.667 179.333z"/>
<path style="fill:#ffaa28; stroke:none;" d="M625 180C627.052 180.874 628.747 180.953 631 181C628.948 180.126 627.253 180.047 625 180z"/>
<path style="fill:#fdbe60; stroke:none;" d="M720 180C721.506 180.683 722.315 180.826 724 181C722.494 180.317 721.685 180.174 720 180z"/>
<path style="fill:#ffaa28; stroke:none;" d="M615 183C618.371 184.196 621.587 182.78 625 182C621.651 180.838 618.428 182.42 615 183z"/>
<path style="fill:#fead36; stroke:none;" d="M724 181C725.506 181.683 726.315 181.826 728 182C726.494 181.317 725.685 181.174 724 181z"/>
<path style="fill:#fad194; stroke:none;" d="M728 181L729 182L728 181z"/>
<path style="fill:#fccd8a; stroke:none;" d="M618 182L619 183L618 182z"/>
<path style="fill:#ffaa28; stroke:none;" d="M728 182C729.248 182.685 729.549 182.749 731 183C729.752 182.315 729.451 182.251 728 182M731 183C733.332 183.985 735.457 183.981 738 184C735.668 183.015 733.543 183.019 731 183M612 184C613.248 184.685 613.548 184.749 615 185C613.752 184.315 613.452 184.251 612 184z"/>
<path style="fill:#fdb74f; stroke:none;" d="M738 184L739 185L738 184z"/>
<path style="fill:#ffaa28; stroke:none;" d="M610.667 185.333C610.222 185.778 611.278 185.722 611.333 185.667C611.778 185.222 610.722 185.278 610.667 185.333M739 185C740.248 185.685 740.549 185.749 742 186C740.752 185.315 740.451 185.251 739 185z"/>
<path style="fill:#fbdcaa; stroke:none;" d="M601.667 188.333C601.222 188.778 602.278 188.722 602.333 188.667C602.778 188.222 601.722 188.278 601.667 188.333z"/>
<path style="fill:#fcbb55; stroke:none;" d="M752 188L753 189L752 188z"/>
<path style="fill:#f9ce8c; stroke:none;" d="M756 189L757 190L756 189z"/>
<path style="fill:#ffad35; stroke:none;" d="M597 190C598.248 190.685 598.549 190.749 600 191C598.752 190.315 598.452 190.251 597 190z"/>
<path style="fill:#fcbd59; stroke:none;" d="M756 190C757.769 190.779 759.036 190.912 761 191C759.231 190.221 757.964 190.088 756 190z"/>
<path style="fill:#ffaa28; stroke:none;" d="M594 191C595.248 191.685 595.549 191.749 597 192C595.752 191.315 595.452 191.251 594 191z"/>
<path style="fill:#feb342; stroke:none;" d="M761.667 191.333C761.222 191.778 762.278 191.722 762.333 191.667C762.778 191.222 761.722 191.278 761.667 191.333z"/>
<path style="fill:#ffaa28; stroke:none;" d="M593 192C591.154 192.913 590.205 193.401 589 195C591.002 194.407 593.895 194.188 593 192z"/>
<path style="fill:#ffad36; stroke:none;" d="M763.667 192.333C763.222 192.778 764.278 192.722 764.333 192.667C764.778 192.222 763.722 192.278 763.667 192.333z"/>
<path style="fill:#ffaa28; stroke:none;" d="M765 193C766.506 193.683 767.315 193.826 769 194C767.494 193.317 766.685 193.174 765 193z"/>
<path style="fill:#fbd190; stroke:none;" d="M588 194L589 195L588 194z"/>
<path style="fill:#ffaa28; stroke:none;" d="M586.667 195.333C586.222 195.778 587.278 195.722 587.333 195.667C587.778 195.222 586.722 195.278 586.667 195.333M771 195C772.248 195.685 772.548 195.749 774 196C772.752 195.315 772.452 195.251 771 195z"/>
<path style="fill:#fcc87a; stroke:none;" d="M576.667 199.333C576.222 199.778 577.278 199.722 577.333 199.667C577.778 199.222 576.722 199.278 576.667 199.333z"/>
<path style="fill:#ffaa28; stroke:none;" d="M567 203C570.168 203.631 572.965 202.009 576 201C572.691 199.923 570.082 201.634 567 203z"/>
<path style="fill:#feb342; stroke:none;" d="M783 200C784.248 200.685 784.549 200.749 786 201C784.752 200.315 784.452 200.251 783 200z"/>
<path style="fill:#ffaa28; stroke:none;" d="M786.667 201.333C786.222 201.778 787.278 201.722 787.333 201.667C787.778 201.222 786.722 201.278 786.667 201.333z"/>
<path style="fill:#fccf8e; stroke:none;" d="M568 202L569 203L568 202z"/>
<path style="fill:#ffaa28; stroke:none;" d="M788.667 202.333C788.222 202.778 789.278 202.722 789.333 202.667C789.778 202.222 788.722 202.278 788.667 202.333M790 203C791.248 203.685 791.548 203.749 793 204C791.752 203.315 791.452 203.251 790 203M565.667 204.333C565.222 204.778 566.278 204.722 566.333 204.667C566.778 204.222 565.722 204.278 565.667 204.333z"/>
<path style="fill:#fcbd59; stroke:none;" d="M996.667 204.333C996.222 204.778 997.278 204.722 997.333 204.667C997.778 204.222 996.722 204.278 996.667 204.333z"/>
<path style="fill:#ffaa28; stroke:none;" d="M795.667 205.333C795.222 205.778 796.278 205.722 796.333 205.667C796.778 205.222 795.722 205.278 795.667 205.333M979 205C984.222 207.191 991.368 206 997 206C991.778 203.809 984.632 205 979 205M998 205C1002.47 206.876 1008.18 206 1013 206C1008.53 204.124 1002.82 205 998 205M1014.67 205.333C1014.22 205.778 1015.28 205.722 1015.33 205.667C1015.78 205.222 1014.72 205.278 1014.67 205.333z"/>
<path style="fill:#fdb74f; stroke:none;" d="M798.667 206.333C798.222 206.778 799.278 206.722 799.333 206.667C799.778 206.222 798.722 206.278 798.667 206.333z"/>
<path style="fill:#fcc26a; stroke:none;" d="M975 206L976 207L975 206z"/>
<path style="fill:#fbd69e; stroke:none;" d="M557 207L558 208L557 207z"/>
<path style="fill:#fdb74f; stroke:none;" d="M800 207L801 208L800 207z"/>
<path style="fill:#f9e2bf; stroke:none;" d="M974.333 207.667C974.278 207.722 974.222 208.778 974.667 208.333C974.722 208.278 974.778 207.222 974.333 207.667z"/>
<path style="fill:#fbdcaa; stroke:none;" d="M556 208L557 209L556 208z"/>
<path style="fill:#f8d6a1; stroke:none;" d="M803 208L804 209L803 208z"/>
<path style="fill:#fdc36c; stroke:none;" d="M554.667 209.333C554.222 209.778 555.278 209.722 555.333 209.667C555.778 209.222 554.722 209.278 554.667 209.333z"/>
<path style="fill:#fad297; stroke:none;" d="M804.667 209.333C804.222 209.778 805.278 209.722 805.333 209.667C805.778 209.222 804.722 209.278 804.667 209.333z"/>
<path style="fill:#ffaa28; stroke:none;" d="M974.333 209.667C974.278 209.722 974.222 210.778 974.667 210.333C974.722 210.278 974.778 209.222 974.333 209.667z"/>
<path style="fill:#f9d59f; stroke:none;" d="M1031.67 209.333C1031.22 209.777 1032.28 209.722 1032.33 209.667C1032.78 209.222 1031.72 209.278 1031.67 209.333z"/>
<path style="fill:#ffaa28; stroke:none;" d="M546 215C549.699 215.852 552.692 212.67 555 210C551.725 211.259 548.985 213.166 546 215z"/>
<path style="fill:#fdbb57; stroke:none;" d="M807 210L808 211L807 210z"/>
<path style="fill:#feb241; stroke:none;" d="M1033 210C1034.51 210.683 1035.31 210.826 1037 211C1035.49 210.317 1034.69 210.174 1033 210z"/>
<path style="fill:#ffab2a; stroke:none;" d="M808.667 211.333C808.222 211.778 809.278 211.722 809.333 211.667C809.778 211.222 808.722 211.278 808.667 211.333z"/>
<path style="fill:#f9d59f; stroke:none;" d="M974 211L975 212L974 211z"/>
<path style="fill:#ffaa28; stroke:none;" d="M1037.67 211.333C1037.22 211.777 1038.28 211.722 1038.33 211.667C1038.78 211.222 1037.72 211.278 1037.67 211.333z"/>
<path style="fill:#fccd8a; stroke:none;" d="M549 212L550 213L549 212z"/>
<path style="fill:#ffab2a; stroke:none;" d="M810.667 212.333C810.222 212.778 811.278 212.722 811.333 212.667C811.778 212.222 810.722 212.278 810.667 212.333z"/>
<path style="fill:#ffaa28; stroke:none;" d="M1039 212C1040.51 212.683 1041.31 212.826 1043 213C1041.49 212.317 1040.69 212.174 1039 212z"/>
<path style="fill:#ffab2a; stroke:none;" d="M812.667 213.333C812.222 213.778 813.278 213.722 813.333 213.667C813.778 213.222 812.722 213.278 812.667 213.333z"/>
<path style="fill:#fcc26b; stroke:none;" d="M975.333 213.667C975.278 213.722 975.222 214.778 975.667 214.333C975.722 214.278 975.778 213.222 975.333 213.667z"/>
<path style="fill:#ffab2a; stroke:none;" d="M815 215C816.248 215.685 816.548 215.749 818 216C816.752 215.315 816.452 215.251 815 215z"/>
<path style="fill:#ffaa28; stroke:none;" d="M977.333 215.667C977.278 215.722 977.222 216.778 977.667 216.333C977.722 216.278 977.778 215.222 977.333 215.667M1045 215C1046.25 215.685 1046.55 215.749 1048 216C1046.75 215.315 1046.45 215.251 1045 215z"/>
<path style="fill:#f8d7a5; stroke:none;" d="M1048 215L1049 216L1048 215z"/>
<path style="fill:#fae3c1; stroke:none;" d="M543.667 217.333C543.222 217.778 544.278 217.722 544.333 217.667C544.778 217.222 543.722 217.278 543.667 217.333z"/>
<path style="fill:#ffaa28; stroke:none;" d="M978 217L978 220C978.696 218.446 978.696 218.554 978 217z"/>
<path style="fill:#fbd69e; stroke:none;" d="M542 218L543 219L542 218z"/>
<path style="fill:#ffaa28; stroke:none;" d="M1053.33 218.667C1053.28 218.723 1053.22 219.777 1053.67 219.333C1053.72 219.278 1053.78 218.222 1053.33 218.667z"/>
<path style="fill:#fbd69e; stroke:none;" d="M541 219L542 220L541 219z"/>
<path style="fill:#fdc26a; stroke:none;" d="M822 219C823.248 219.685 823.548 219.749 825 220C823.752 219.315 823.452 219.251 822 219z"/>
<path style="fill:#f8d7a5; stroke:none;" d="M1054 219L1055 220L1054 219z"/>
<path style="fill:#ffaa28; stroke:none;" d="M541 220L540 222L542 222C542 220.147 542.3 220.65 541 220z"/>
<path style="fill:#fcc87b; stroke:none;" d="M825 220L826 221L825 220z"/>
<path style="fill:#fcc169; stroke:none;" d="M1056 220L1057 221L1056 220z"/>
<path style="fill:#fbd69c; stroke:none;" d="M539 221L540 222L539 221z"/>
<path style="fill:#ffab2a; stroke:none;" d="M826 221L826 223L828 223C827.455 221.365 827.635 221.545 826 221z"/>
<path style="fill:#ffaa28; stroke:none;" d="M979.667 221.333C979.222 221.778 980.278 221.722 980.333 221.667C980.778 221.222 979.722 221.278 979.667 221.333z"/>
<path style="fill:#fbddaf; stroke:none;" d="M538 222L539 223L538 222z"/>
<path style="fill:#ffaa28; stroke:none;" d="M1058 222C1059.25 222.685 1059.55 222.749 1061 223C1059.75 222.315 1059.45 222.251 1058 222z"/>
<path style="fill:#f9d49b; stroke:none;" d="M829 223L830 224L829 223z"/>
<path style="fill:#fcc87f; stroke:none;" d="M537 224L538 225L537 224z"/>
<path style="fill:#facf8b; stroke:none;" d="M830 224L831 225L830 224z"/>
<path style="fill:#ffaa28; stroke:none;" d="M1061.67 224.333C1061.22 224.778 1062.28 224.722 1062.33 224.667C1062.78 224.222 1061.72 224.278 1061.67 224.333z"/>
<path style="fill:#ffab2a; stroke:none;" d="M831.667 225.333C831.222 225.778 832.278 225.722 832.333 225.667C832.778 225.222 831.722 225.278 831.667 225.333z"/>
<path style="fill:#fbdcaa; stroke:none;" d="M532.667 228.333C532.222 228.778 533.278 228.722 533.333 228.667C533.778 228.222 532.722 228.278 532.667 228.333z"/>
<path style="fill:#ffaa28; stroke:none;" d="M983.667 228.333C983.222 228.778 984.278 228.722 984.333 228.667C984.778 228.222 983.722 228.278 983.667 228.333z"/>
<path style="fill:#f9e5c3; stroke:none;" d="M838.667 229.333C838.222 229.778 839.278 229.722 839.333 229.667C839.778 229.222 838.722 229.278 838.667 229.333z"/>
<path style="fill:#f9ce8c; stroke:none;" d="M984 229L985 230L984 229M1070.67 229.333C1070.22 229.778 1071.28 229.722 1071.33 229.667C1071.78 229.222 1070.72 229.278 1070.67 229.333z"/>
<path style="fill:#ffaa28; stroke:none;" d="M531 230C530.455 231.635 530.635 231.455 529 232C530.852 232.365 531.364 231.852 531 230z"/>
<path style="fill:#fad8a3; stroke:none;" d="M840 230L841 231L840 230z"/>
<path style="fill:#fbc77a; stroke:none;" d="M1072 230L1073 231L1072 230z"/>
<path style="fill:#fbd190; stroke:none;" d="M530 231L531 232L530 231z"/>
<path style="fill:#ffab2a; stroke:none;" d="M840 231C841.248 231.685 841.549 231.749 843 232C841.752 231.315 841.452 231.251 840 231z"/>
<path style="fill:#fcbb55; stroke:none;" d="M985 231L986 232L985 231z"/>
<path style="fill:#ffad36; stroke:none;" d="M986 232L986 235C986.696 233.446 986.696 233.554 986 232z"/>
<path style="fill:#fcba52; stroke:none;" d="M1075 232L1076 233L1075 232z"/>
<path style="fill:#ffaa28; stroke:none;" d="M528.333 233.667C528.278 233.722 528.222 234.778 528.667 234.333C528.722 234.278 528.778 233.222 528.333 233.667M1076 233C1076.98 234.783 1076.91 234.594 1079 235C1077.86 233.984 1077.39 233.691 1076 233z"/>
<path style="fill:#ffab2a; stroke:none;" d="M844 234C845.248 234.685 845.548 234.749 847 235C845.752 234.315 845.451 234.251 844 234z"/>
<path style="fill:#ffaa28; stroke:none;" d="M988.333 235.667C988.278 235.722 988.222 236.778 988.667 236.333C988.722 236.278 988.778 235.222 988.333 235.667z"/>
<path style="fill:#fad69f; stroke:none;" d="M850 237L851 238L850 237z"/>
<path style="fill:#ffaa28; stroke:none;" d="M989 237L989 240C989.696 238.446 989.696 238.554 989 237z"/>
<path style="fill:#fbd69c; stroke:none;" d="M521 239L522 240L521 239z"/>
<path style="fill:#ffaa28; stroke:none;" d="M522.667 239.333C522.222 239.778 523.278 239.722 523.333 239.667C523.778 239.222 522.722 239.278 522.667 239.333z"/>
<path style="fill:#f9d59e; stroke:none;" d="M1085 239L1086 240L1085 239z"/>
<path style="fill:#ffaa28; stroke:none;" d="M521 240L518 245C520.223 243.619 521.245 242.644 521 240z"/>
<path style="fill:#fdc26a; stroke:none;" d="M853 240L854 241L853 240z"/>
<path style="fill:#fdc577; stroke:none;" d="M520 241L521 242L520 241z"/>
<path style="fill:#ffab2a; stroke:none;" d="M854.333 241.667C854.278 241.722 854.222 242.778 854.667 242.333C854.722 242.278 854.778 241.222 854.333 241.667z"/>
<path style="fill:#ffaa28; stroke:none;" d="M990.667 241.333C990.222 241.778 991.278 241.722 991.333 241.667C991.778 241.222 990.722 241.278 990.667 241.333M1087 241C1088.25 241.685 1088.55 241.749 1090 242C1088.75 241.315 1088.45 241.251 1087 241z"/>
<path style="fill:#fbe3c1; stroke:none;" d="M517.333 244.667C517.278 244.722 517.222 245.778 517.667 245.333C517.722 245.278 517.778 244.222 517.333 244.667z"/>
<path style="fill:#feaf3b; stroke:none;" d="M856.667 244.333C856.222 244.778 857.278 244.722 857.333 244.667C857.778 244.222 856.722 244.278 856.667 244.333z"/>
<path style="fill:#f9deb1; stroke:none;" d="M992 244L993 245L992 244z"/>
<path style="fill:#ffaa28; stroke:none;" d="M1092 244C1093.38 244.911 1094.44 245.404 1096 246C1094.69 244.382 1094.12 244.307 1092 244z"/>
<path style="fill:#fdba57; stroke:none;" d="M858 245L859 246L858 245z"/>
<path style="fill:#ffab2a; stroke:none;" d="M859.333 246.667C859.278 246.722 859.222 247.778 859.667 247.333C859.722 247.278 859.778 246.222 859.333 246.667z"/>
<path style="fill:#faca81; stroke:none;" d="M1098 246L1099 247L1098 246z"/>
<path style="fill:#fccd8a; stroke:none;" d="M514.667 248.333C514.222 248.778 515.278 248.722 515.333 248.667C515.778 248.222 514.722 248.278 514.667 248.333z"/>
<path style="fill:#fcbf5d; stroke:none;" d="M861 248L862 249L861 248z"/>
<path style="fill:#fad090; stroke:none;" d="M996 248L997 249L996 248z"/>
<path style="fill:#f9e9cc; stroke:none;" d="M1102.67 248.333C1102.22 248.777 1103.28 248.722 1103.33 248.667C1103.78 248.222 1102.72 248.278 1102.67 248.333z"/>
<path style="fill:#fdc472; stroke:none;" d="M513 249L514 250L513 249z"/>
<path style="fill:#facf8f; stroke:none;" d="M1105 249L1106 250L1105 249z"/>
<path style="fill:#fad194; stroke:none;" d="M997 250L998 251L997 250z"/>
<path style="fill:#feb142; stroke:none;" d="M1106.67 250.333C1106.22 250.777 1107.28 250.722 1107.33 250.667C1107.78 250.222 1106.72 250.278 1106.67 250.333z"/>
<path style="fill:#ffaa28; stroke:none;" d="M512 251L511 253L513 253C513 251.147 513.3 251.65 512 251z"/>
<path style="fill:#feaf3b; stroke:none;" d="M863.667 251.333C863.222 251.778 864.278 251.722 864.333 251.667C864.778 251.222 863.722 251.278 863.667 251.333z"/>
<path style="fill:#ffaa28; stroke:none;" d="M999.667 251.333C999.222 251.778 1000.28 251.722 1000.33 251.667C1000.78 251.222 999.722 251.278 999.667 251.333z"/>
<path style="fill:#ffad36; stroke:none;" d="M1108.67 251.333C1108.22 251.777 1109.28 251.723 1109.33 251.667C1109.78 251.222 1108.72 251.278 1108.67 251.333z"/>
<path style="fill:#fdcb83; stroke:none;" d="M510 252L511 253L510 252z"/>
<path style="fill:#ffaa28; stroke:none;" d="M1110.67 252.333C1110.22 252.777 1111.28 252.723 1111.33 252.667C1111.78 252.222 1110.72 252.278 1110.67 252.333z"/>
<path style="fill:#feb342; stroke:none;" d="M509.333 253.667C509.278 253.722 509.222 254.778 509.667 254.333C509.722 254.278 509.778 253.222 509.333 253.667z"/>
<path style="fill:#ffab2a; stroke:none;" d="M866.333 253.667C866.278 253.722 866.222 254.778 866.667 254.333C866.722 254.278 866.778 253.222 866.333 253.667z"/>
<path style="fill:#f8d7a5; stroke:none;" d="M1001 253L1002 254L1001 253z"/>
<path style="fill:#fcbd59; stroke:none;" d="M1002 253L1003 254L1002 253z"/>
<path style="fill:#ffaa28; stroke:none;" d="M1112.67 253.333C1112.22 253.777 1113.28 253.722 1113.33 253.667C1113.78 253.222 1112.72 253.278 1112.67 253.333z"/>
<path style="fill:#fdb74f; stroke:none;" d="M1003 254L1004 255L1003 254z"/>
<path style="fill:#ffaa28; stroke:none;" d="M1114 254C1115.25 254.685 1115.55 254.749 1117 255C1115.75 254.315 1115.45 254.251 1114 254z"/>
<path style="fill:#fccb83; stroke:none;" d="M508 255L509 256L508 255z"/>
<path style="fill:#fdba57; stroke:none;" d="M868 255L869 256L868 255z"/>
<path style="fill:#fcc26a; stroke:none;" d="M1004 255L1005 256L1004 255z"/>
<path style="fill:#fbc77a; stroke:none;" d="M1117 255L1118 256L1117 255z"/>
<path style="fill:#fcbf5d; stroke:none;" d="M869 256L870 257L869 256z"/>
<path style="fill:#fccd8a; stroke:none;" d="M506 257L507 258L506 257z"/>
<path style="fill:#ffaf3b; stroke:none;" d="M870.333 257.667C870.278 257.722 870.222 258.778 870.667 258.333C870.722 258.278 870.778 257.222 870.333 257.667z"/>
<path style="fill:#ffaa28; stroke:none;" d="M1008.67 258.333C1008.22 258.778 1009.28 258.722 1009.33 258.667C1009.78 258.222 1008.72 258.278 1008.67 258.333z"/>
<path style="fill:#f9e6ca; stroke:none;" d="M1124 258C1125.25 258.685 1125.55 258.749 1127 259C1125.75 258.315 1125.45 258.251 1124 258z"/>
<path style="fill:#feb449; stroke:none;" d="M872 259L873 260L872 259z"/>
<path style="fill:#ffad35; stroke:none;" d="M503.667 260.333C503.222 260.778 504.278 260.722 504.333 260.667C504.778 260.222 503.722 260.278 503.667 260.333z"/>
<path style="fill:#fcc064; stroke:none;" d="M873 260L874 261L873 260z"/>
<path style="fill:#feb142; stroke:none;" d="M1128 260C1129.51 260.683 1130.31 260.826 1132 261C1130.49 260.317 1129.69 260.174 1128 260z"/>
<path style="fill:#ffaa28; stroke:none;" d="M502.333 261.667C502.278 261.722 502.222 262.778 502.667 262.333C502.722 262.278 502.778 261.222 502.333 261.667z"/>
<path style="fill:#fcc87b; stroke:none;" d="M875 261L876 262L875 261z"/>
<path style="fill:#ffad36; stroke:none;" d="M1012 261C1013.25 261.685 1013.55 261.749 1015 262C1013.75 261.315 1013.45 261.251 1012 261z"/>
<path style="fill:#ffaa28; stroke:none;" d="M1132.67 261.333C1132.22 261.778 1133.28 261.722 1133.33 261.667C1133.78 261.222 1132.72 261.278 1132.67 261.333z"/>
<path style="fill:#fcc36f; stroke:none;" d="M1134 261L1135 262L1134 261z"/>
<path style="fill:#fbc77a; stroke:none;" d="M1014 262L1015 263L1014 262M1135 262L1136 263L1135 262z"/>
<path style="fill:#fdb74e; stroke:none;" d="M501 263L502 264L501 263z"/>
<path style="fill:#fdba57; stroke:none;" d="M876 263L877 264L876 263z"/>
<path style="fill:#facb81; stroke:none;" d="M1015.67 263.333C1015.22 263.778 1016.28 263.722 1016.33 263.667C1016.78 263.222 1015.72 263.278 1015.67 263.333z"/>
<path style="fill:#ffaa28; stroke:none;" d="M1017.67 263.333C1017.22 263.778 1018.28 263.722 1018.33 263.667C1018.78 263.222 1017.72 263.278 1017.67 263.333M1135 263C1137.05 263.874 1138.75 263.953 1141 264C1138.95 263.126 1137.25 263.047 1135 263z"/>
<path style="fill:#fdb74e; stroke:none;" d="M499 264L499 266C500.635 265.455 500.455 265.635 501 264L499 264z"/>
<path style="fill:#ffab2a; stroke:none;" d="M877.333 264.667C877.278 264.722 877.222 265.778 877.667 265.333C877.722 265.278 877.778 264.222 877.333 264.667z"/>
<path style="fill:#ffaa28; stroke:none;" d="M1141.67 264.333C1141.22 264.777 1142.28 264.722 1142.33 264.667C1142.78 264.222 1141.72 264.278 1141.67 264.333z"/>
<path style="fill:#fccb83; stroke:none;" d="M498 266L499 267L498 266z"/>
<path style="fill:#fcbb54; stroke:none;" d="M879 266L880 267L879 266z"/>
<path style="fill:#fcc26a; stroke:none;" d="M1024 266L1025 267L1024 266M880 267L881 268L880 267z"/>
<path style="fill:#ffaa28; stroke:none;" d="M1026.67 267.333C1026.22 267.777 1027.28 267.723 1027.33 267.667C1027.78 267.222 1026.72 267.278 1026.67 267.333z"/>
<path style="fill:#fcca83; stroke:none;" d="M496 268L497 269L496 268z"/>
<path style="fill:#ffaa28; stroke:none;" d="M1029 268C1030.25 268.685 1030.55 268.749 1032 269C1030.75 268.315 1030.45 268.251 1029 268z"/>
<path style="fill:#f9ddb0; stroke:none;" d="M1154.67 268.333C1154.22 268.778 1155.28 268.722 1155.33 268.667C1155.78 268.222 1154.72 268.278 1154.67 268.333z"/>
<path style="fill:#fcc26a; stroke:none;" d="M881.667 269.333C881.222 269.778 882.278 269.722 882.333 269.667C882.778 269.222 881.722 269.278 881.667 269.333z"/>
<path style="fill:#ffaa28; stroke:none;" d="M1032.67 269.333C1032.22 269.778 1033.28 269.722 1033.33 269.667C1033.78 269.222 1032.72 269.278 1032.67 269.333z"/>
<path style="fill:#feb142; stroke:none;" d="M1156 269C1157.73 271.003 1159.35 270.923 1162 271C1160.06 270.049 1158.1 269.561 1156 269z"/>
<path style="fill:#ffaa28; stroke:none;" d="M1034 270C1035.77 270.779 1037.04 270.912 1039 271C1037.23 270.221 1035.96 270.088 1034 270z"/>
<path style="fill:#facf8f; stroke:none;" d="M1162 270L1163 271L1162 270z"/>
<path style="fill:#ffaa28; stroke:none;" d="M884.333 271.667C884.278 271.722 884.222 272.778 884.667 272.333C884.722 272.278 884.778 271.222 884.333 271.667M1039 271C1040.51 271.683 1041.31 271.826 1043 272C1041.49 271.317 1040.69 271.174 1039 271z"/>
<path style="fill:#feb342; stroke:none;" d="M1043 272C1045.05 272.874 1046.75 272.953 1049 273C1046.95 272.126 1045.25 272.047 1043 272z"/>
<path style="fill:#ffab2a; stroke:none;" d="M492.667 273.333C492.222 273.778 493.278 273.722 493.333 273.667C493.778 273.222 492.722 273.278 492.667 273.333z"/>
<path style="fill:#fead36; stroke:none;" d="M885 273C885.545 274.635 885.365 274.455 887 275L887 273L885 273z"/>
<path style="fill:#fcc26a; stroke:none;" d="M1048 273C1052.22 274.769 1057.46 274 1062 274C1057.78 272.231 1052.54 273 1048 273z"/>
<path style="fill:#ffaa28; stroke:none;" d="M1166 273C1167.51 273.683 1168.31 273.826 1170 274C1168.49 273.317 1167.69 273.174 1166 273z"/>
<path style="fill:#ffab2a; stroke:none;" d="M491.333 274.667C491.278 274.722 491.222 275.778 491.667 275.333C491.722 275.278 491.778 274.222 491.333 274.667z"/>
<path style="fill:#f9ce8c; stroke:none;" d="M1063 274L1064 275L1063 274z"/>
<path style="fill:#feb342; stroke:none;" d="M1065.33 275.667C1065.28 275.723 1065.22 276.777 1065.67 276.333C1065.72 276.278 1065.78 275.222 1065.33 275.667z"/>
<path style="fill:#ffaa28; stroke:none;" d="M1173.67 275.333C1173.22 275.777 1174.28 275.722 1174.33 275.667C1174.78 275.222 1173.72 275.278 1173.67 275.333M888.333 276.667C888.278 276.722 888.222 277.778 888.667 277.333C888.722 277.278 888.778 276.222 888.333 276.667z"/>
<path style="fill:#fccd8c; stroke:none;" d="M488 277L489 278L488 277z"/>
<path style="fill:#ffaa28; stroke:none;" d="M1066 277L1066 285C1067.16 282.23 1067.16 279.77 1066 277z"/>
<path style="fill:#fcbb54; stroke:none;" d="M890 278L891 279L890 278z"/>
<path style="fill:#fcd59c; stroke:none;" d="M487 279L488 280L487 279z"/>
<path style="fill:#faca81; stroke:none;" d="M1186.67 279.333C1186.22 279.777 1187.28 279.723 1187.33 279.667C1187.78 279.222 1186.72 279.278 1186.67 279.333z"/>
<path style="fill:#feb142; stroke:none;" d="M1188 280C1189.51 280.683 1190.31 280.826 1192 281C1190.49 280.317 1189.69 280.174 1188 280z"/>
<path style="fill:#ffab2a; stroke:none;" d="M485.667 281.333C485.222 281.778 486.278 281.722 486.333 281.667C486.778 281.222 485.722 281.278 485.667 281.333z"/>
<path style="fill:#fead36; stroke:none;" d="M892 281C892.545 282.635 892.365 282.455 894 283L894 281L892 281z"/>
<path style="fill:#fcbd59; stroke:none;" d="M1192 281L1193 282L1192 281z"/>
<path style="fill:#ffab2a; stroke:none;" d="M484.333 282.667C484.278 282.722 484.222 283.778 484.667 283.333C484.722 283.278 484.778 282.222 484.333 282.667z"/>
<path style="fill:#ffaa28; stroke:none;" d="M1193 282C1195.01 283.225 1196.66 283.645 1199 284C1196.99 282.775 1195.34 282.355 1193 282z"/>
<path style="fill:#f9d59f; stroke:none;" d="M1196 282L1197 283L1196 282z"/>
<path style="fill:#ffaa28; stroke:none;" d="M1199.67 284.333C1199.22 284.777 1200.28 284.723 1200.33 284.667C1200.78 284.222 1199.72 284.278 1199.67 284.333z"/>
<path style="fill:#ffab2a; stroke:none;" d="M481 285L481 287C482.635 286.455 482.455 286.635 483 285L481 285z"/>
<path style="fill:#ffaa28; stroke:none;" d="M897.333 285.667C897.278 285.722 897.222 286.778 897.667 286.333C897.722 286.278 897.778 285.222 897.333 285.667z"/>
<path style="fill:#fdb74f; stroke:none;" d="M1065 285L1065 288C1065.7 286.446 1065.7 286.554 1065 285z"/>
<path style="fill:#ffaa28; stroke:none;" d="M1201 285C1202.51 285.683 1203.31 285.826 1205 286C1203.49 285.317 1202.69 285.174 1201 285z"/>
<path style="fill:#fcbd59; stroke:none;" d="M1207 286L1208 287L1207 286z"/>
<path style="fill:#facb81; stroke:none;" d="M1208 287L1209 288L1208 287z"/>
<path style="fill:#ffab2a; stroke:none;" d="M479 288L478 290L480 290C480 288.147 480.3 288.65 479 288z"/>
<path style="fill:#ffaa28; stroke:none;" d="M899 288L899 290L901 290C900.455 288.365 900.635 288.545 899 288M1064.33 288.667C1064.28 288.722 1064.22 289.778 1064.67 289.333C1064.72 289.278 1064.78 288.222 1064.33 288.667z"/>
<path style="fill:#f8d7a5; stroke:none;" d="M1063 289L1064 290L1063 289z"/>
<path style="fill:#fcc46f; stroke:none;" d="M1215 289C1216.25 289.685 1216.55 289.749 1218 290C1216.75 289.315 1216.45 289.251 1215 289z"/>
<path style="fill:#fead36; stroke:none;" d="M1218 290C1219.25 290.685 1219.55 290.749 1221 291C1219.75 290.315 1219.45 290.251 1218 290z"/>
<path style="fill:#ffaa28; stroke:none;" d="M1221 291C1223.31 292.393 1225.31 292.765 1228 293C1225.69 291.607 1223.69 291.235 1221 291z"/>
<path style="fill:#ffab2a; stroke:none;" d="M474 293L474 295C475.635 294.455 475.455 294.635 476 293L474 293z"/>
<path style="fill:#ffaa28; stroke:none;" d="M903.667 294.333C903.222 294.778 904.278 294.722 904.333 294.667C904.778 294.222 903.722 294.278 903.667 294.333M1059.67 294.333C1059.22 294.778 1060.28 294.722 1060.33 294.667C1060.78 294.222 1059.72 294.278 1059.67 294.333M1229 294C1230.51 294.683 1231.31 294.826 1233 295C1231.49 294.317 1230.69 294.174 1229 294M905.333 295.667C905.278 295.722 905.222 296.778 905.667 296.333C905.722 296.278 905.778 295.222 905.333 295.667M1058.33 295.667C1058.28 295.723 1058.22 296.777 1058.67 296.333C1058.72 296.278 1058.78 295.222 1058.33 295.667z"/>
<path style="fill:#fcc26a; stroke:none;" d="M1236 295L1237 296L1236 295z"/>
<path style="fill:#ffab2a; stroke:none;" d="M472.333 296.667C472.278 296.722 472.222 297.778 472.667 297.333C472.723 297.277 472.778 296.222 472.333 296.667z"/>
<path style="fill:#ffaa28; stroke:none;" d="M908.333 298.667C908.278 298.722 908.222 299.778 908.667 299.333C908.722 299.278 908.778 298.222 908.333 298.667M1055.33 298.667C1055.28 298.722 1055.22 299.778 1055.67 299.333C1055.72 299.278 1055.78 298.222 1055.33 298.667z"/>
<path style="fill:#fac97e; stroke:none;" d="M1248 299C1249.77 299.779 1251.04 299.912 1253 300C1251.23 299.221 1249.96 299.088 1248 299z"/>
<path style="fill:#ffab2a; stroke:none;" d="M468 300L467 302L469 302C469 300.147 469.3 300.65 468 300z"/>
<path style="fill:#ffaa28; stroke:none;" d="M909.333 300.667C909.278 300.722 909.222 301.778 909.667 301.333C909.722 301.278 909.778 300.222 909.333 300.667z"/>
<path style="fill:#fead36; stroke:none;" d="M1253.67 300.333C1253.22 300.777 1254.28 300.723 1254.33 300.667C1254.78 300.222 1253.72 300.278 1253.67 300.333z"/>
<path style="fill:#ffaa28; stroke:none;" d="M1255 301C1256.25 301.685 1256.55 301.749 1258 302C1256.75 301.315 1256.45 301.251 1255 301M910.667 302.333C910.222 302.778 911.278 302.722 911.333 302.667C911.778 302.222 910.722 302.278 910.667 302.333M1052.67 302.333C1052.22 302.777 1053.28 302.722 1053.33 302.667C1053.78 302.222 1052.72 302.278 1052.67 302.333M1258 302C1259.51 302.683 1260.31 302.826 1262 303C1260.49 302.317 1259.69 302.174 1258 302M1262 303C1263.25 303.685 1263.55 303.749 1265 304C1263.75 303.315 1263.45 303.251 1262 303z"/>
<path style="fill:#fcc26b; stroke:none;" d="M1266 304L1267 305L1266 304z"/>
<path style="fill:#ffab2a; stroke:none;" d="M463.333 305.667C463.278 305.722 463.222 306.778 463.667 306.333C463.722 306.277 463.778 305.222 463.333 305.667z"/>
<path style="fill:#ffaa28; stroke:none;" d="M1048 305L1048 307C1049.64 306.455 1049.45 306.635 1050 305L1048 305z"/>
<path style="fill:#ffab2a; stroke:none;" d="M462.333 307.667C462.278 307.722 462.222 308.778 462.667 308.333C462.722 308.278 462.778 307.222 462.333 307.667z"/>
<path style="fill:#ffaa28; stroke:none;" d="M915.333 307.667C915.278 307.722 915.222 308.778 915.667 308.333C915.722 308.278 915.778 307.222 915.333 307.667M1046.33 307.667C1046.28 307.722 1046.22 308.777 1046.67 308.333C1046.72 308.278 1046.78 307.222 1046.33 307.667M1273.33 307.667C1273.28 307.722 1273.22 308.777 1273.67 308.333C1273.72 308.278 1273.78 307.222 1273.33 307.667z"/>
<path style="fill:#f9ce8c; stroke:none;" d="M1045 308L1046 309L1045 308z"/>
<path style="fill:#f9deb1; stroke:none;" d="M1274 308L1275 309L1274 308z"/>
<path style="fill:#ffab2a; stroke:none;" d="M460.667 309.333C460.222 309.778 461.278 309.722 461.333 309.667C461.778 309.222 460.722 309.278 460.667 309.333M459.333 310.667C459.278 310.722 459.222 311.778 459.667 311.333C459.722 311.278 459.778 310.222 459.333 310.667z"/>
<path style="fill:#ffaa28; stroke:none;" d="M917 310L917 312L919 312C918.455 310.365 918.635 310.545 917 310M1041.67 311.333C1041.22 311.778 1042.28 311.722 1042.33 311.667C1042.78 311.222 1041.72 311.278 1041.67 311.333M1277.67 311.333C1277.22 311.778 1278.28 311.722 1278.33 311.667C1278.78 311.222 1277.72 311.278 1277.67 311.333z"/>
<path style="fill:#f6e1c1; stroke:none;" d="M1279.33 312.667C1279.28 312.722 1279.22 313.778 1279.67 313.333C1279.72 313.278 1279.78 312.222 1279.33 312.667z"/>
<path style="fill:#fbdbaa; stroke:none;" d="M457 313L458 314L457 313z"/>
<path style="fill:#ffab2a; stroke:none;" d="M456.667 314.333C456.222 314.778 457.278 314.722 457.333 314.667C457.778 314.222 456.722 314.278 456.667 314.333M455.333 315.667C455.278 315.722 455.222 316.778 455.667 316.333C455.722 316.278 455.778 315.222 455.333 315.667z"/>
<path style="fill:#ffaa28; stroke:none;" d="M1037 315L1037 317C1038.63 316.455 1038.45 316.635 1039 315L1037 315z"/>
<path style="fill:#ffab2a; stroke:none;" d="M452.333 318.667C452.278 318.722 452.222 319.778 452.667 319.333C452.722 319.278 452.778 318.222 452.333 318.667z"/>
<path style="fill:#fcbd59; stroke:none;" d="M925 319L926 320L925 319z"/>
<path style="fill:#ffab2a; stroke:none;" d="M449.667 321.333C449.222 321.778 450.278 321.722 450.333 321.667C450.778 321.222 449.722 321.278 449.667 321.333z"/>
<path style="fill:#ffaa28; stroke:none;" d="M1029 321C1030.25 321.685 1030.55 321.749 1032 322C1030.75 321.315 1030.45 321.251 1029 321z"/>
<path style="fill:#fdc778; stroke:none;" d="M448.333 322.667C448.278 322.722 448.222 323.778 448.667 323.333C448.722 323.278 448.778 322.222 448.333 322.667z"/>
<path style="fill:#ffaa28; stroke:none;" d="M928.667 322.333C928.222 322.778 929.278 322.722 929.333 322.667C929.778 322.222 928.722 322.278 928.667 322.333z"/>
<path style="fill:#fcbd59; stroke:none;" d="M1028 322L1029 323L1028 322z"/>
<path style="fill:#ffaa28; stroke:none;" d="M931 324C932.506 324.683 933.315 324.826 935 325C933.494 324.317 932.685 324.174 931 324z"/>
<path style="fill:#ffab2a; stroke:none;" d="M445.333 326.667C445.278 326.722 445.222 327.778 445.667 327.333C445.722 327.278 445.778 326.222 445.333 326.667z"/>
<path style="fill:#f8d7a5; stroke:none;" d="M941 326L942 327L941 326z"/>
<path style="fill:#fafaf8; stroke:none;" d="M1279 327C1276.6 343.331 1263.19 357.028 1247 360.482C1231.69 363.748 1215.51 361.36 1200 362.039C1178.49 362.981 1155.27 367.036 1135.29 375.286C1120.51 381.389 1109.08 392.201 1097.68 402.986C1090.66 409.623 1083.16 416.043 1077.52 423.975C1064.44 442.387 1053.66 464.963 1036.42 480.037C1018.92 495.354 998.645 508.432 977.961 518.951C965.597 525.237 951.92 528.256 940 535.598C926.714 543.781 914.106 556.871 904.053 568.76C898.232 575.645 894.24 584.199 889.845 592.003C884.024 602.339 877.487 612.26 872.498 623.039C867.246 634.39 863.581 652.342 852.334 659.421C846.501 663.093 838.642 663.618 832 664.579C827.453 665.238 822.583 666.466 818 665.624C811.519 664.434 802.203 660.417 801.152 652.961C800.609 649.107 802.597 645.71 802.961 641.961C803.33 638.155 802.988 632.576 805.027 629.225C808.174 624.052 818.664 624.156 824 624.015C826.658 623.944 830.193 624.49 832.258 622.397C836.253 618.348 835.565 608.28 836.63 603C840.068 585.943 844.153 569.299 846.728 552C848.076 542.946 849.98 534.063 851.271 525C852.184 518.587 852.467 512.69 845.957 509.324C837.873 505.144 828.872 505.039 820 504.999C800.244 504.912 783.985 508.3 769.001 522.08C764.364 526.345 759.106 531.927 757.018 538C753.135 549.294 757.921 563.381 757.999 575C758.021 578.146 759.092 582.153 758 585C759.709 588.093 760.159 590.103 758 593L758 595C759.243 596.903 759.243 597.097 758 599C760.61 603.693 759.976 608.776 760.001 614C760.028 619.616 760.633 625.408 761.17 631C762.199 641.726 762.751 654.325 765.458 664.714C767.884 674.02 772.562 685.306 772 695C775.074 698.907 774.657 704.111 776.714 708.576C784.759 726.039 791.682 743.969 800.363 761.089C804.855 769.948 807.788 779.166 815.379 786.135C821.656 791.898 829.652 794.806 836.714 799.353C848.896 807.194 860.694 815.748 874 821.653C885.142 826.597 898.146 829.96 910 832.765C926.345 836.634 942.691 839.868 959 843.997C965.63 845.675 972.725 846.534 979 849.388C998.322 858.178 1016.25 869.231 1030.8 885.075C1040.24 895.346 1048.81 905.965 1058.83 915.745C1061.18 918.037 1062.39 921.09 1065 923L1065 925C1062.37 926.263 1060.02 927.824 1057 927.899C1052.77 928.004 1049.27 925.874 1045 927.07C1040.11 928.441 1035.99 931.564 1031 932.76C1025.98 933.964 1021.08 933.297 1016 933.58C1001.18 934.407 983.297 935.605 968.985 930.881C954.55 926.116 942.857 914.349 930 906.671C901.149 889.443 870.917 873.766 839.576 861.784C828.847 857.682 817.77 854.878 807 850.947C800.344 848.517 792.106 844.286 785 845C782.318 841.636 776.928 840.741 773 839.12C760.26 833.859 743.635 832.865 733.156 823.265C716.922 808.392 725.448 783.123 722.791 764C721.571 755.221 720.479 745.874 718.744 737.17C717.536 731.11 715.622 726.393 716 720C713.233 716.403 713.212 711.482 711.914 707.17C709.036 697.604 707.057 687.911 704.548 678.286C697.908 652.811 688.248 627.584 677.17 603.83C673.021 594.935 670.62 585.634 665.054 577.301C660.98 571.201 653.631 567.544 647 564.961C633.147 559.565 617.589 557.13 603 554.676C593.319 553.047 584.203 549.312 575 546.093C549.335 537.115 526.989 523.922 504 509.47C494.718 503.635 485.219 498.142 476 492.201C469.319 487.896 463.273 482.71 455 482.09C445.525 481.38 433.7 482.243 424.999 486.404C416.295 490.566 409.429 497.744 401.54 503.08C389.926 510.936 377.904 518.265 366.424 526.264C356.645 533.078 346.174 538.813 336.424 545.674C328.403 551.316 320.925 557.755 313.001 563.541C292.342 578.626 270.39 592.293 249.039 606.435C237.894 613.818 226.944 621.802 215.996 629.509C209.129 634.344 202.402 640.29 194.83 643.993C180.401 651.048 165.642 653.198 150 654.835C139.752 655.908 129.333 657.873 119 657.996C84.9803 658.401 44.8422 647.012 21.7701 620.389C16.7593 614.607 13.749 608.076 10.1991 601.424C5.89084 593.35 2.12385 585.215 1 576C-0.768735 580.215 0 585.464 0 590L0 617L0 712L0 1041L1024 1041L1024 1024L1280 1024L1280 530L1280 387L1280 346C1280 340.113 1281.29 332.462 1279 327z"/>
<path style="fill:#f8d8aa; stroke:none;" d="M947 328C948.248 328.685 948.548 328.749 950 329C948.752 328.315 948.452 328.251 947 328z"/>
<path style="fill:#f8d7a5; stroke:none;" d="M951 328L952 329L951 328z"/>
<path style="fill:#f8ead3; stroke:none;" d="M1015 328C1016.25 328.685 1016.55 328.749 1018 329C1016.75 328.315 1016.45 328.251 1015 328z"/>
<path style="fill:#ffaf3c; stroke:none;" d="M443 329C441.965 330.186 441.661 330.604 441 332C442.849 331.033 443.722 330.86 443 329z"/>
<path style="fill:#fad090; stroke:none;" d="M953 329C954.248 329.685 954.549 329.749 956 330C954.752 329.315 954.452 329.251 953 329z"/>
<path style="fill:#fbc77a; stroke:none;" d="M1012.67 329.333C1012.22 329.778 1013.28 329.722 1013.33 329.667C1013.78 329.222 1012.72 329.278 1012.67 329.333z"/>
<path style="fill:#feb342; stroke:none;" d="M956 330C957.769 330.779 959.036 330.912 961 331C959.231 330.221 957.964 330.088 956 330z"/>
<path style="fill:#fcbb55; stroke:none;" d="M1008 330C1009.25 330.685 1009.55 330.749 1011 331C1009.75 330.315 1009.45 330.251 1008 330z"/>
<path style="fill:#ffaa28; stroke:none;" d="M961 331C963.89 332.213 966.874 331.998 970 332C967.11 330.787 964.126 331.002 961 331M1004 331C1005.77 331.779 1007.04 331.912 1009 332C1007.23 331.221 1005.96 331.088 1004 331z"/>
<path style="fill:#ffab2a; stroke:none;" d="M440.333 332.667C440.278 332.722 440.222 333.778 440.667 333.333C440.722 333.277 440.778 332.222 440.333 332.667z"/>
<path style="fill:#ffaa28; stroke:none;" d="M970 332C971.506 332.683 972.315 332.826 974 333C972.494 332.317 971.685 332.174 970 332M1000 332C1001.51 332.683 1002.31 332.826 1004 333C1002.49 332.317 1001.69 332.174 1000 332z"/>
<path style="fill:#fbdcad; stroke:none;" d="M439 333L440 334L439 333z"/>
<path style="fill:#ffaa28; stroke:none;" d="M974 333C981.169 336.008 992.239 334 1000 334C992.832 330.992 981.761 333 974 333z"/>
<path style="fill:#fae8ca; stroke:none;" d="M437.333 334.667C437.278 334.722 437.222 335.778 437.667 335.333C437.722 335.278 437.778 334.222 437.333 334.667z"/>
<path style="fill:#fccf8d; stroke:none;" d="M434.667 338.333C434.222 338.778 435.278 338.722 435.333 338.667C435.778 338.222 434.722 338.278 434.667 338.333z"/>
<path style="fill:#ffab2a; stroke:none;" d="M434 339L433 341L435 341C435 339.147 435.3 339.65 434 339M432.333 341.667C432.278 341.722 432.222 342.778 432.667 342.333C432.722 342.278 432.778 341.222 432.333 341.667M430 343L430 345C431.635 344.455 431.455 344.635 432 343L430 343z"/>
<path style="fill:#fdc678; stroke:none;" d="M429.333 344.667C429.278 344.722 429.222 345.778 429.667 345.333C429.722 345.278 429.778 344.222 429.333 344.667z"/>
<path style="fill:#fbdcad; stroke:none;" d="M428 346L429 347L428 346z"/>
<path style="fill:#feb64a; stroke:none;" d="M428 347L429 348L428 347z"/>
<path style="fill:#fdc266; stroke:none;" d="M426 348L427 349L426 348z"/>
<path style="fill:#f5bb64; stroke:none;" d="M1266 350L1267 351L1266 350z"/>
<path style="fill:#ffab2a; stroke:none;" d="M423 351L423 353C424.635 352.455 424.455 352.635 425 351L423 351z"/>
<path style="fill:#f5af47; stroke:none;" d="M1265 351L1266 352L1265 351z"/>
<path style="fill:#feb64a; stroke:none;" d="M422 353L423 354L422 353z"/>
<path style="fill:#f5bb64; stroke:none;" d="M1262 353L1263 354L1262 353z"/>
<path style="fill:#ffab2a; stroke:none;" d="M421.333 354.667C421.278 354.722 421.222 355.778 421.667 355.333C421.722 355.278 421.778 354.222 421.333 354.667z"/>
<path style="fill:#ffaf3c; stroke:none;" d="M419.333 356.667C419.278 356.722 419.222 357.778 419.667 357.333C419.722 357.278 419.778 356.222 419.333 356.667z"/>
<path style="fill:#f5ba60; stroke:none;" d="M1257 357L1258 358L1257 357z"/>
<path style="fill:#ffab2a; stroke:none;" d="M416.667 360.333C416.222 360.778 417.278 360.722 417.333 360.667C417.778 360.222 416.722 360.278 416.667 360.333z"/>
<path style="fill:#f4c988; stroke:none;" d="M1195 362L1196 363L1195 362z"/>
<path style="fill:#ffab2a; stroke:none;" d="M412.667 364.333C412.222 364.778 413.278 364.722 413.333 364.667C413.778 364.222 412.722 364.278 412.667 364.333z"/>
<path style="fill:#f5ce91; stroke:none;" d="M1176 364L1177 365L1176 364z"/>
<path style="fill:#ffab2a; stroke:none;" d="M411.333 365.667C411.278 365.722 411.222 366.778 411.667 366.333C411.722 366.278 411.778 365.222 411.333 365.667z"/>
<path style="fill:#f6e2c2; stroke:none;" d="M1169 365C1171.05 365.874 1172.75 365.953 1175 366C1172.95 365.126 1171.25 365.047 1169 365z"/>
<path style="fill:#fbd69c; stroke:none;" d="M408 368L409 369L408 368z"/>
<path style="fill:#f5d098; stroke:none;" d="M1149 370L1150 371L1149 370z"/>
<path style="fill:#f5af47; stroke:none;" d="M1145 371L1146 372L1145 371z"/>
<path style="fill:#ffab2a; stroke:none;" d="M405.667 372.333C405.222 372.778 406.278 372.722 406.333 372.667C406.778 372.222 405.722 372.278 405.667 372.333z"/>
<path style="fill:#f5af47; stroke:none;" d="M1144 372L1145 373L1144 372z"/>
<path style="fill:#ffab2a; stroke:none;" d="M404.333 373.667C404.278 373.722 404.222 374.778 404.667 374.333C404.722 374.278 404.778 373.222 404.333 373.667M403.333 375.667C403.278 375.722 403.222 376.778 403.667 376.333C403.722 376.278 403.778 375.222 403.333 375.667M400.333 378.667C400.278 378.722 400.222 379.778 400.667 379.333C400.722 379.278 400.778 378.222 400.333 378.667z"/>
<path style="fill:#f5bb64; stroke:none;" d="M1128 378L1129 379L1128 378z"/>
<path style="fill:#f4c680; stroke:none;" d="M1127 379L1128 380L1127 379z"/>
<path style="fill:#ffab2a; stroke:none;" d="M398.667 380.333C398.222 380.778 399.278 380.722 399.333 380.667C399.778 380.222 398.722 380.278 398.667 380.333M394.667 385.333C394.222 385.778 395.278 385.722 395.333 385.667C395.778 385.222 394.722 385.278 394.667 385.333M392.333 387.667C392.278 387.722 392.222 388.778 392.667 388.333C392.722 388.278 392.778 387.222 392.333 387.667z"/>
<path style="fill:#fccd84; stroke:none;" d="M391 388L392 389L391 388z"/>
<path style="fill:#fdc678; stroke:none;" d="M389 390L390 391L389 390z"/>
<path style="fill:#fcd395; stroke:none;" d="M388 392L389 393L388 392z"/>
<path style="fill:#ffab2a; stroke:none;" d="M387.667 393.333C387.222 393.778 388.278 393.722 388.333 393.667C388.778 393.222 387.722 393.278 387.667 393.333z"/>
<path style="fill:#f5ce91; stroke:none;" d="M1106.67 394.333C1106.22 394.777 1107.28 394.722 1107.33 394.667C1107.78 394.222 1106.72 394.278 1106.67 394.333z"/>
<path style="fill:#ffab2a; stroke:none;" d="M383.333 397.667C383.278 397.722 383.222 398.778 383.667 398.333C383.722 398.278 383.778 397.222 383.333 397.667M381 400L380 402L382 402C382 400.147 382.3 400.65 381 400z"/>
<path style="fill:#fccc89; stroke:none;" d="M379.333 401.667C379.278 401.722 379.222 402.778 379.667 402.333C379.722 402.278 379.778 401.222 379.333 401.667z"/>
<path style="fill:#f5dcb4; stroke:none;" d="M1098 402L1099 403L1098 402z"/>
<path style="fill:#f5af47; stroke:none;" d="M1095.67 404.333C1095.22 404.778 1096.28 404.722 1096.33 404.667C1096.78 404.222 1095.72 404.278 1095.67 404.333z"/>
<path style="fill:#ffab2a; stroke:none;" d="M375 407L372 412C373.87 410.441 375.16 409.442 375 407z"/>
<path style="fill:#fbdbab; stroke:none;" d="M374 408L375 409L374 408z"/>
<path style="fill:#fcd292; stroke:none;" d="M372 409L373 410L372 409z"/>
<path style="fill:#f4d4a4; stroke:none;" d="M1090 410L1091 411L1090 410z"/>
<path style="fill:#fccb87; stroke:none;" d="M371 411L372 412L371 411z"/>
<path style="fill:#fbdbab; stroke:none;" d="M370 412L371 413L370 412z"/>
<path style="fill:#feb54a; stroke:none;" d="M370 413L371 414L370 413z"/>
<path style="fill:#fbead0; stroke:none;" d="M368.333 414.667C368.278 414.722 368.222 415.778 368.667 415.333C368.722 415.278 368.778 414.222 368.333 414.667z"/>
<path style="fill:#f5c275; stroke:none;" d="M1085 414L1086 415L1085 414z"/>
<path style="fill:#fdcf8c; stroke:none;" d="M366 417L367 418L366 417z"/>
<path style="fill:#ffab2a; stroke:none;" d="M365 418L362 422C364.144 420.869 365.099 420.432 365 418z"/>
<path style="fill:#feb54a; stroke:none;" d="M361 421L360 425C361.303 423.332 361.553 423.008 361 421z"/>
<path style="fill:#fccd84; stroke:none;" d="M359 425L360 426L359 425z"/>
<path style="fill:#fdc36c; stroke:none;" d="M357 427L358 428L357 427z"/>
<path style="fill:#ffab2a; stroke:none;" d="M356.333 428.667C356.278 428.722 356.222 429.778 356.667 429.333C356.722 429.278 356.778 428.222 356.333 428.667M354.667 430.333C354.222 430.778 355.278 430.722 355.333 430.667C355.778 430.222 354.722 430.278 354.667 430.333M353.333 431.667C353.278 431.722 353.222 432.778 353.667 432.333C353.722 432.278 353.778 431.222 353.333 431.667M352.333 433.667C352.278 433.722 352.222 434.778 352.667 434.333C352.722 434.278 352.778 433.222 352.333 433.667z"/>
<path style="fill:#f4d4a4; stroke:none;" d="M1071 434L1072 435L1071 434z"/>
<path style="fill:#fdbc59; stroke:none;" d="M350 435L351 436L350 435z"/>
<path style="fill:#f4d4a4; stroke:none;" d="M1070 435L1071 436L1070 435z"/>
<path style="fill:#fdc97c; stroke:none;" d="M349 436L350 437L349 436z"/>
<path style="fill:#fdc678; stroke:none;" d="M347 438L348 439L347 438z"/>
<path style="fill:#f4c680; stroke:none;" d="M1068 439L1069 440L1068 439M1066 441L1067 442L1066 441z"/>
<path style="fill:#ffab2a; stroke:none;" d="M343 443L343 445C344.635 444.455 344.455 444.635 345 443L343 443z"/>
<path style="fill:#f5d098; stroke:none;" d="M1065 443L1066 444L1065 443z"/>
<path style="fill:#ffab2a; stroke:none;" d="M341.333 446.667C341.278 446.722 341.222 447.778 341.667 447.333C341.722 447.278 341.778 446.222 341.333 446.667z"/>
<path style="fill:#fbd498; stroke:none;" d="M340 447L341 448L340 447z"/>
<path style="fill:#ffab2a; stroke:none;" d="M339.333 448.667C339.278 448.722 339.222 449.778 339.667 449.333C339.722 449.278 339.778 448.222 339.333 448.667M336.667 452.333C336.222 452.778 337.278 452.722 337.333 452.667C337.778 452.222 336.722 452.278 336.667 452.333M334.333 455.667C334.278 455.722 334.222 456.778 334.667 456.333C334.722 456.278 334.778 455.222 334.333 455.667M331.333 458.667C331.278 458.722 331.222 459.778 331.667 459.333C331.722 459.278 331.778 458.222 331.333 458.667M329.667 460.333C329.222 460.778 330.278 460.722 330.333 460.667C330.778 460.222 329.722 460.278 329.667 460.333M325.333 465.667C325.278 465.722 325.222 466.778 325.667 466.333C325.722 466.278 325.778 465.222 325.333 465.667M323 468L322 470L324 470C324 468.147 324.3 468.65 323 468M320.333 471.667C320.278 471.722 320.222 472.778 320.667 472.333C320.722 472.278 320.778 471.222 320.333 471.667M318.667 473.333C318.222 473.778 319.278 473.722 319.333 473.667C319.778 473.222 318.722 473.278 318.667 473.333z"/>
<path style="fill:#f5cf95; stroke:none;" d="M1041 474L1041 476C1042.64 475.455 1042.45 475.635 1043 474L1041 474z"/>
<path style="fill:#ffab2a; stroke:none;" d="M314.333 477.667C314.278 477.722 314.222 478.778 314.667 478.333C314.722 478.278 314.778 477.222 314.333 477.667z"/>
<path style="fill:#fcd49a; stroke:none;" d="M313 478L314 479L313 478z"/>
<path style="fill:#fbd8a3; stroke:none;" d="M312 479L313 480L312 479z"/>
<path style="fill:#ffab2a; stroke:none;" d="M312 480L311 482L313 482C313 480.147 313.3 480.65 312 480M310.333 482.667C310.278 482.722 310.222 483.778 310.667 483.333C310.722 483.278 310.778 482.222 310.333 482.667z"/>
<path style="fill:#f4c680; stroke:none;" d="M440 482L441 483L440 482z"/>
<path style="fill:#f5c274; stroke:none;" d="M434 483L435 484L434 483z"/>
<path style="fill:#f5cf95; stroke:none;" d="M429.667 484.333C429.222 484.778 430.278 484.722 430.333 484.667C430.778 484.222 429.722 484.278 429.667 484.333z"/>
<path style="fill:#f4c988; stroke:none;" d="M432 484L433 485L432 484z"/>
<path style="fill:#f5d7a8; stroke:none;" d="M463.667 484.333C463.222 484.778 464.278 484.722 464.333 484.667C464.778 484.222 463.722 484.278 463.667 484.333z"/>
<path style="fill:#fdc97c; stroke:none;" d="M305 488L306 489L305 488z"/>
<path style="fill:#fbd69e; stroke:none;" d="M303 489L304 490L303 489z"/>
<path style="fill:#ffab2a; stroke:none;" d="M304.667 489.333C304.222 489.778 305.278 489.722 305.333 489.667C305.778 489.222 304.722 489.278 304.667 489.333z"/>
<path style="fill:#fdca80; stroke:none;" d="M302 490L303 491L302 490z"/>
<path style="fill:#ffab2a; stroke:none;" d="M302 491C300.814 492.186 300.472 492.584 300 494C301.994 493.153 302.699 492.993 302 491z"/>
<path style="fill:#f4d4a4; stroke:none;" d="M415 492L416 493L415 492z"/>
<path style="fill:#f4ac40; stroke:none;" d="M477.667 493.333C477.222 493.778 478.278 493.722 478.333 493.667C478.778 493.222 477.722 493.278 477.667 493.333z"/>
<path style="fill:#fdc46c; stroke:none;" d="M299 494L300 495L299 494z"/>
<path style="fill:#fccc89; stroke:none;" d="M298 496L299 497L298 496z"/>
<path style="fill:#fdbd59; stroke:none;" d="M296.667 498.333C296.222 498.778 297.278 498.722 297.333 498.667C297.778 498.222 296.722 498.278 296.667 498.333z"/>
<path style="fill:#ffab2a; stroke:none;" d="M295.333 499.667C295.278 499.722 295.222 500.778 295.667 500.333C295.722 500.278 295.778 499.222 295.333 499.667z"/>
<path style="fill:#feb54a; stroke:none;" d="M294 501L295 502L294 501z"/>
<path style="fill:#f5cf95; stroke:none;" d="M404 501L405 502L404 501z"/>
<path style="fill:#f4c988; stroke:none;" d="M1008 501L1009 502L1008 501z"/>
<path style="fill:#ffab2a; stroke:none;" d="M292.667 502.333C292.222 502.778 293.278 502.722 293.333 502.667C293.778 502.222 292.722 502.278 292.667 502.333z"/>
<path style="fill:#f5d7a8; stroke:none;" d="M491 502L492 503L491 502z"/>
<path style="fill:#f5ce91; stroke:none;" d="M1007 502L1008 503L1007 502z"/>
<path style="fill:#ffaf3c; stroke:none;" d="M291.333 503.667C291.278 503.722 291.222 504.778 291.667 504.333C291.722 504.278 291.778 503.222 291.333 503.667z"/>
<path style="fill:#f5cb8b; stroke:none;" d="M401 503L402 504L401 503z"/>
<path style="fill:#f4c680; stroke:none;" d="M494 503L495 504L494 503z"/>
<path style="fill:#f4b454; stroke:none;" d="M812 504L813 505L812 504z"/>
<path style="fill:#f6d4a3; stroke:none;" d="M813 504C815.89 505.213 818.874 504.998 822 505C819.11 503.787 816.126 504.002 813 504z"/>
<path style="fill:#f6ddb6; stroke:none;" d="M823.667 504.333C823.222 504.778 824.278 504.722 824.333 504.667C824.778 504.222 823.722 504.278 823.667 504.333z"/>
<path style="fill:#fdc062; stroke:none;" d="M290 505L291 506L290 505z"/>
<path style="fill:#f4d4a4; stroke:none;" d="M497 505L498 506L497 505z"/>
<path style="fill:#f4b352; stroke:none;" d="M1001 505L1002 506L1001 505z"/>
<path style="fill:#f5af49; stroke:none;" d="M499 506L500 507L499 506z"/>
<path style="fill:#fdbc57; stroke:none;" d="M288 507L289 508L288 507z"/>
<path style="fill:#f4c57f; stroke:none;" d="M846 509L847 510L846 509z"/>
<path style="fill:#ffaa29; stroke:none;" d="M285 510L285 512C286.635 511.455 286.455 511.635 287 510L285 510z"/>
<path style="fill:#ffaa28; stroke:none;" d="M283.333 513.667C283.278 513.722 283.222 514.778 283.667 514.333C283.722 514.278 283.778 513.222 283.333 513.667z"/>
<path style="fill:#f5ce91; stroke:none;" d="M510 513L511 514L510 513z"/>
<path style="fill:#f4b352; stroke:none;" d="M988 513L989 514L988 513z"/>
<path style="fill:#f4d4a4; stroke:none;" d="M851 514L852 515L851 514z"/>
<path style="fill:#ffad36; stroke:none;" d="M278.667 517.333C278.222 517.778 279.278 517.722 279.333 517.667C279.778 517.222 278.722 517.278 278.667 517.333z"/>
<path style="fill:#f5d7a8; stroke:none;" d="M981 517L982 518L981 517z"/>
<path style="fill:#f4d4a4; stroke:none;" d="M517 518L518 519L517 518z"/>
<path style="fill:#f7e8d1; stroke:none;" d="M772.333 518.667C772.278 518.722 772.222 519.778 772.667 519.333C772.722 519.278 772.778 518.222 772.333 518.667z"/>
<path style="fill:#f4c680; stroke:none;" d="M519 519L520 520L519 519z"/>
<path style="fill:#fdc97c; stroke:none;" d="M14 520L15 521L14 520z"/>
<path style="fill:#ffaa28; stroke:none;" d="M276.333 520.667C276.278 520.722 276.222 521.778 276.667 521.333C276.722 521.278 276.778 520.222 276.333 520.667z"/>
<path style="fill:#f5c274; stroke:none;" d="M520 520L521 521L520 520z"/>
<path style="fill:#ffab2a; stroke:none;" d="M13.6667 521.333C13.2223 521.778 14.2777 521.722 14.3333 521.667C14.7778 521.222 13.7223 521.278 13.6667 521.333M16 521L16 523L18 523C17.455 521.365 17.6351 521.545 16 521z"/>
<path style="fill:#fbead0; stroke:none;" d="M18.3333 522.667C18.2777 522.722 18.2223 523.778 18.6667 523.333C18.7222 523.278 18.7778 522.222 18.3333 522.667z"/>
<path style="fill:#ffaa28; stroke:none;" d="M274.667 522.333C274.222 522.778 275.278 522.722 275.333 522.667C275.778 522.222 274.722 522.278 274.667 522.333z"/>
<path style="fill:#f5dcb4; stroke:none;" d="M768 522L769 523L768 522z"/>
<path style="fill:#ffaa28; stroke:none;" d="M273.333 523.667C273.278 523.722 273.222 524.778 273.667 524.333C273.722 524.278 273.778 523.222 273.333 523.667z"/>
<path style="fill:#f5b95e; stroke:none;" d="M967 523L968 524L967 523z"/>
<path style="fill:#fcd396; stroke:none;" d="M18.3333 524.667C18.2777 524.722 18.2222 525.778 18.6667 525.333C18.7221 525.278 18.7779 524.222 18.3333 524.667z"/>
<path style="fill:#f5d7a8; stroke:none;" d="M369 524L370 525L369 524z"/>
<path style="fill:#f6dfbb; stroke:none;" d="M965.667 524.333C965.222 524.778 966.278 524.722 966.333 524.667C966.778 524.222 965.722 524.278 965.667 524.333z"/>
<path style="fill:#ffab2a; stroke:none;" d="M8 526L6 530C7.85957 528.734 8.36887 528.223 8 526z"/>
<path style="fill:#f4d4a4; stroke:none;" d="M365.333 526.667C365.278 526.722 365.222 527.778 365.667 527.333C365.722 527.278 365.778 526.222 365.333 526.667z"/>
<path style="fill:#fdc676; stroke:none;" d="M7 527L8 528L7 527z"/>
<path style="fill:#f4b456; stroke:none;" d="M363 528L364 529L363 528z"/>
<path style="fill:#fbddae; stroke:none;" d="M5 529L6 530L5 529z"/>
<path style="fill:#ffaa28; stroke:none;" d="M267.667 529.333C267.222 529.778 268.278 529.722 268.333 529.667C268.778 529.222 267.722 529.278 267.667 529.333z"/>
<path style="fill:#fdc97c; stroke:none;" d="M4 530L5 531L4 530z"/>
<path style="fill:#ffaa28; stroke:none;" d="M266.333 530.667C266.278 530.722 266.222 531.778 266.667 531.333C266.722 531.278 266.778 530.222 266.333 530.667z"/>
<path style="fill:#f4d4a4; stroke:none;" d="M761 530L762 531L761 530M949 530L950 531L949 530z"/>
<path style="fill:#ffaf3a; stroke:none;" d="M4 531L3 535C4.14554 533.36 4.39302 532.924 4 531z"/>
<path style="fill:#f4d4a4; stroke:none;" d="M948 531L949 532L948 531z"/>
<path style="fill:#ffaa28; stroke:none;" d="M263.667 533.333C263.222 533.778 264.278 533.722 264.333 533.667C264.778 533.222 263.722 533.278 263.667 533.333z"/>
<path style="fill:#f5d098; stroke:none;" d="M543 533L544 534L543 533z"/>
<path style="fill:#f4b454; stroke:none;" d="M544 533L545 534L544 533z"/>
<path style="fill:#f5cb8b; stroke:none;" d="M944 533L945 534L944 533z"/>
<path style="fill:#f5cf95; stroke:none;" d="M758 534L759 535L758 534z"/>
<path style="fill:#fbe2bb; stroke:none;" d="M1.33333 535.667C1.27768 535.722 1.22223 536.778 1.66667 536.333C1.72216 536.278 1.77775 535.222 1.33333 535.667z"/>
<path style="fill:#ffaa28; stroke:none;" d="M261.333 535.667C261.278 535.722 261.222 536.778 261.667 536.333C261.722 536.278 261.778 535.222 261.333 535.667z"/>
<path style="fill:#f8c980; stroke:none;" d="M0 538L1 539L0 538z"/>
<path style="fill:#f8f3e8; stroke:none;" d="M0 539L0 542C0.696131 540.446 0.696094 540.554 0 539z"/>
<path style="fill:#ffab2a; stroke:none;" d="M21 539L21 544C21.8299 541.969 21.8299 541.031 21 539z"/>
<path style="fill:#ffaa28; stroke:none;" d="M256 540L256 542C257.635 541.455 257.455 541.635 258 540L256 540z"/>
<path style="fill:#f5bd6b; stroke:none;" d="M560 541L561 542L560 541z"/>
<path style="fill:#f5b95e; stroke:none;" d="M563 542L564 543L563 542z"/>
<path style="fill:#ffab2a; stroke:none;" d="M22 544L22 548C22.7102 546.241 22.7102 545.76 22 544z"/>
<path style="fill:#ffaa28; stroke:none;" d="M252.667 544.333C252.222 544.778 253.278 544.722 253.333 544.667C253.778 544.222 252.722 544.278 252.667 544.333z"/>
<path style="fill:#f6e2c2; stroke:none;" d="M567 544C568.248 544.685 568.548 544.749 570 545C568.752 544.315 568.452 544.251 567 544z"/>
<path style="fill:#ffaa28; stroke:none;" d="M251.333 545.667C251.278 545.722 251.222 546.778 251.667 546.333C251.722 546.278 251.778 545.222 251.333 545.667z"/>
<path style="fill:#fdcf8e; stroke:none;" d="M23 547L24 548L23 547z"/>
<path style="fill:#fbd193; stroke:none;" d="M249 547L250 548L249 547z"/>
<path style="fill:#f4b556; stroke:none;" d="M334 547L335 548L334 547z"/>
<path style="fill:#ffaa28; stroke:none;" d="M23 548L25 554C25.6395 551.34 24.7769 550.05 23 548z"/>
<path style="fill:#fafa74; stroke:none;" d="M29 549L30 550L29 549z"/>
<path style="fill:#ffaa28; stroke:none;" d="M247.333 549.667C247.278 549.722 247.222 550.778 247.667 550.333C247.722 550.278 247.778 549.222 247.333 549.667z"/>
<path style="fill:#fccc87; stroke:none;" d="M25 550L26 551L25 550z"/>
<path style="fill:#fafa26; stroke:none;" d="M28.6667 550.333C28.2222 550.778 29.2778 550.722 29.3333 550.667C29.7777 550.222 28.7222 550.278 28.6667 550.333z"/>
<path style="fill:#fafa6d; stroke:none;" d="M34 550L35 551L34 550z"/>
<path style="fill:#f7e5c9; stroke:none;" d="M921.333 550.667C921.277 550.723 921.222 551.778 921.667 551.333C921.722 551.278 921.778 550.222 921.333 550.667z"/>
<path style="fill:#fafa74; stroke:none;" d="M28 551L29 552L28 551z"/>
<path style="fill:#fafa78; stroke:none;" d="M35 551L36 552L35 551z"/>
<path style="fill:#ffaa28; stroke:none;" d="M245.667 551.333C245.222 551.778 246.278 551.722 246.333 551.667C246.778 551.222 245.722 551.278 245.667 551.333z"/>
<path style="fill:#f5dcb4; stroke:none;" d="M589 551L590 552L589 551z"/>
<path style="fill:#fafa4b; stroke:none;" d="M27 552L28 553L27 552z"/>
<path style="fill:#fafa6d; stroke:none;" d="M36 552L37 553L36 552z"/>
<path style="fill:#fafa00; stroke:none;" d="M37 553L38 554L37 553z"/>
<path style="fill:#f4d4a4; stroke:none;" d="M598 553L599 554L598 553z"/>
<path style="fill:#f4ac3f; stroke:none;" d="M599.667 553.333C599.222 553.778 600.278 553.722 600.333 553.667C600.778 553.222 599.722 553.278 599.667 553.333z"/>
<path style="fill:#feb442; stroke:none;" d="M26 554L26 557C26.6961 555.446 26.6961 555.554 26 554z"/>
<path style="fill:#fafa57; stroke:none;" d="M37 554L37 556C38.6351 555.455 38.4549 555.635 39 554L37 554z"/>
<path style="fill:#fdbe61; stroke:none;" d="M241 554L242 555L241 554z"/>
<path style="fill:#f6e1c1; stroke:none;" d="M325.667 554.333C325.222 554.778 326.278 554.722 326.333 554.667C326.778 554.222 325.722 554.278 325.667 554.333z"/>
<path style="fill:#f7e6cd; stroke:none;" d="M601 554C602.769 554.779 604.036 554.912 606 555C604.231 554.221 602.964 554.088 601 554z"/>
<path style="fill:#fafa00; stroke:none;" d="M37.3333 556.667C37.2778 556.722 37.2223 557.778 37.6667 557.333C37.7223 557.278 37.7778 556.222 37.3333 556.667z"/>
<path style="fill:#fbddaf; stroke:none;" d="M238 556L239 557L238 556z"/>
<path style="fill:#fdb950; stroke:none;" d="M239 556L240 557L239 556z"/>
<path style="fill:#fdbb56; stroke:none;" d="M27.3333 557.667C27.2779 557.722 27.2222 558.778 27.6667 558.333C27.7223 558.278 27.7778 557.222 27.3333 557.667z"/>
<path style="fill:#fafa78; stroke:none;" d="M36 557L37 558L36 557z"/>
<path style="fill:#faa87d; stroke:none;" d="M37 558L38 559L37 558z"/>
<path style="fill:#ffaa28; stroke:none;" d="M27.6667 559.333C27.2222 559.778 28.2778 559.722 28.3333 559.667C28.7777 559.222 27.7223 559.278 27.6667 559.333z"/>
<path style="fill:#fa7ab7; stroke:none;" d="M36 559L37 560L36 559z"/>
<path style="fill:#fdc475; stroke:none;" d="M234 559L235 560L234 559z"/>
<path style="fill:#ffaa28; stroke:none;" d="M235.667 559.333C235.222 559.778 236.278 559.722 236.333 559.667C236.778 559.222 235.722 559.278 235.667 559.333M234 560L231 564C233.144 562.869 234.099 562.432 234 560z"/>
<path style="fill:#f4d4a4; stroke:none;" d="M316 560L317 561L316 560z"/>
<path style="fill:#f6e2c2; stroke:none;" d="M844 560L844 563C844.696 561.446 844.696 561.554 844 560z"/>
<path style="fill:#f5dcb4; stroke:none;" d="M314 562L315 563L314 562z"/>
<path style="fill:#f5d7a8; stroke:none;" d="M313 563L314 564L313 563z"/>
<path style="fill:#f4d4a4; stroke:none;" d="M643 563L644 564L643 563z"/>
<path style="fill:#ffaa28; stroke:none;" d="M30.3333 564.667C30.2779 564.722 30.2222 565.778 30.6667 565.333C30.7223 565.278 30.7777 564.222 30.3333 564.667z"/>
<path style="fill:#f6e3c4; stroke:none;" d="M310 564C311.248 564.685 311.548 564.749 313 565C311.752 564.315 311.452 564.251 310 564z"/>
<path style="fill:#f5d7a8; stroke:none;" d="M645.667 564.333C645.223 564.777 646.278 564.722 646.333 564.667C646.778 564.222 645.722 564.278 645.667 564.333z"/>
<path style="fill:#f6bd6c; stroke:none;" d="M844 564L845 565L844 564z"/>
<path style="fill:#ffaa28; stroke:none;" d="M32 566C32.6273 569.075 33.2812 570.427 36 572L32 566z"/>
<path style="fill:#feb443; stroke:none;" d="M226 567L224 568C225.482 568.791 226.796 568.87 226 567z"/>
<path style="fill:#f7eee0; stroke:none;" d="M0 568L0 576C1.16138 573.23 1.16139 570.77 0 568z"/>
<path style="fill:#fbd194; stroke:none;" d="M33 568L34 569L33 568z"/>
<path style="fill:#ffaa28; stroke:none;" d="M223 569C221.777 570.195 221.58 570.316 220 571C222.047 571.705 223.397 571.294 223 569z"/>
<path style="fill:#f5bb64; stroke:none;" d="M305 569L306 570L305 569z"/>
<path style="fill:#fbd194; stroke:none;" d="M34 570L35 571L34 570z"/>
<path style="fill:#fcc77b; stroke:none;" d="M222 570L223 571L222 570z"/>
<path style="fill:#f6bd6c; stroke:none;" d="M302 570L303 571L302 570z"/>
<path style="fill:#fbd194; stroke:none;" d="M36 571L37 572L36 571z"/>
<path style="fill:#f5c275; stroke:none;" d="M658 571L659 572L658 571z"/>
<path style="fill:#feb443; stroke:none;" d="M36.3333 572.667C36.2778 572.722 36.2222 573.778 36.6667 573.333C36.7222 573.278 36.7778 572.222 36.3333 572.667z"/>
<path style="fill:#f5d7a8; stroke:none;" d="M298.667 573.333C298.222 573.778 299.278 573.722 299.333 573.667C299.778 573.222 298.722 573.278 298.667 573.333z"/>
<path style="fill:#fccb86; stroke:none;" d="M37 574L38 575L37 574z"/>
<path style="fill:#f5d098; stroke:none;" d="M297 574L298 575L297 574z"/>
<path style="fill:#fdbf63; stroke:none;" d="M38 575L39 576L38 575z"/>
<path style="fill:#fcce8a; stroke:none;" d="M213 576L214 577L213 576z"/>
<path style="fill:#f4d4a4; stroke:none;" d="M1 577L1 581C1.71024 579.24 1.71021 578.76 1 577z"/>
<path style="fill:#ffaa28; stroke:none;" d="M40.3333 578.667C40.2778 578.722 40.2222 579.778 40.6667 579.333C40.7223 579.278 40.7778 578.222 40.3333 578.667z"/>
<path style="fill:#fdbc58; stroke:none;" d="M209.667 578.333C209.222 578.778 210.278 578.722 210.333 578.667C210.778 578.222 209.722 578.278 209.667 578.333z"/>
<path style="fill:#ffaa28; stroke:none;" d="M207.667 580.333C207.222 580.778 208.278 580.722 208.333 580.667C208.778 580.222 207.722 580.278 207.667 580.333z"/>
<path style="fill:#f4c680; stroke:none;" d="M666 580L667 581L666 580z"/>
<path style="fill:#ffaa28; stroke:none;" d="M42 581C43.0012 582.924 43.0775 583.099 45 584C43.9988 582.076 43.9225 581.901 42 581M205.667 581.333C205.222 581.778 206.278 581.722 206.333 581.667C206.778 581.222 205.722 581.278 205.667 581.333z"/>
<path style="fill:#f5bd6c; stroke:none;" d="M282.667 583.333C282.222 583.778 283.278 583.722 283.333 583.667C283.778 583.222 282.722 583.278 282.667 583.333z"/>
<path style="fill:#f5bb64; stroke:none;" d="M894 583L895 584L894 583z"/>
<path style="fill:#ffaa28; stroke:none;" d="M45.3333 584.667C45.2778 584.722 45.2222 585.778 45.6667 585.333C45.7223 585.278 45.7778 584.222 45.3333 584.667z"/>
<path style="fill:#fdb950; stroke:none;" d="M200.333 584.667C200.278 584.722 200.222 585.778 200.667 585.333C200.722 585.278 200.778 584.222 200.333 584.667z"/>
<path style="fill:#ffaa28; stroke:none;" d="M201.667 584.333C201.222 584.778 202.278 584.722 202.333 584.667C202.778 584.222 201.722 584.278 201.667 584.333z"/>
<path style="fill:#fbddaf; stroke:none;" d="M196 587L197 588L196 587z"/>
<path style="fill:#fdb84e; stroke:none;" d="M49 588C50.1393 589.015 50.6116 589.309 52 590C51.0198 588.217 51.0924 588.406 49 588z"/>
<path style="fill:#fdb950; stroke:none;" d="M194 588L195 589L194 588z"/>
<path style="fill:#f5d7a8; stroke:none;" d="M891.333 588.667C891.278 588.722 891.222 589.778 891.667 589.333C891.722 589.278 891.778 588.222 891.333 588.667z"/>
<path style="fill:#fbdcaa; stroke:none;" d="M192 589L193 590L192 589z"/>
<path style="fill:#f4c680; stroke:none;" d="M4 590L5 591L4 590z"/>
<path style="fill:#ffaa28; stroke:none;" d="M52 590C53.341 591.274 54.4032 592.041 56 593C54.7741 590.965 54.2974 590.674 52 590M190 590C191.248 590.685 191.548 590.749 193 591C191.752 590.315 191.452 590.251 190 590z"/>
<path style="fill:#f4b454; stroke:none;" d="M273 590L274 591L273 590z"/>
<path style="fill:#ffaa28; stroke:none;" d="M187.667 592.333C187.222 592.778 188.278 592.722 188.333 592.667C188.778 592.222 187.722 592.278 187.667 592.333z"/>
<path style="fill:#f6bd6c; stroke:none;" d="M270 592L271 593L270 592z"/>
<path style="fill:#f5dcb4; stroke:none;" d="M759 592L760 593L759 592z"/>
<path style="fill:#ffaa28; stroke:none;" d="M56.6667 593.333C56.2222 593.778 57.2778 593.722 57.3333 593.667C57.7778 593.222 56.7222 593.278 56.6667 593.333M185.667 593.333C185.222 593.778 186.278 593.722 186.333 593.667C186.778 593.222 185.722 593.278 185.667 593.333z"/>
<path style="fill:#f4ac3f; stroke:none;" d="M267.667 593.333C267.222 593.778 268.278 593.722 268.333 593.667C268.778 593.222 267.722 593.278 267.667 593.333z"/>
<path style="fill:#f5d7a8; stroke:none;" d="M269 593L270 594L269 593z"/>
<path style="fill:#f4d4a4; stroke:none;" d="M6 594L7 595L6 594z"/>
<path style="fill:#ffaa28; stroke:none;" d="M182 594C183.248 594.685 183.548 594.749 185 595C183.752 594.315 183.452 594.251 182 594z"/>
<path style="fill:#fdb950; stroke:none;" d="M181 595L182 596L181 595z"/>
<path style="fill:#f5bd6c; stroke:none;" d="M266 595L267 596L266 595z"/>
<path style="fill:#fccc86; stroke:none;" d="M178 596L179 597L178 596z"/>
<path style="fill:#f7e9d4; stroke:none;" d="M675 596L675 600C675.71 598.24 675.71 597.76 675 596z"/>
<path style="fill:#fdb950; stroke:none;" d="M62 597C63.2485 597.685 63.5482 597.749 65 598C63.7517 597.315 63.4515 597.251 62 597z"/>
<path style="fill:#fdc46c; stroke:none;" d="M175 597L176 598L175 597z"/>
<path style="fill:#ffaa28; stroke:none;" d="M173.667 598.333C173.222 598.778 174.278 598.722 174.333 598.667C174.778 598.222 173.722 598.278 173.667 598.333M67 600C68.5061 600.683 69.3148 600.826 71 601C69.4939 600.317 68.6852 600.174 67 600M167 600C168.769 600.779 170.036 600.912 172 601C170.231 600.221 168.964 600.088 167 600M71 601C72.7504 602.255 73.8574 602.614 76 603C74.2495 601.745 73.1427 601.386 71 601M165.667 601.333C165.222 601.778 166.278 601.722 166.333 601.667C166.778 601.222 165.722 601.278 165.667 601.333z"/>
<path style="fill:#f5d098; stroke:none;" d="M676 601L677 602L676 601z"/>
<path style="fill:#fbddaf; stroke:none;" d="M76 602L77 603L76 602z"/>
<path style="fill:#f4b454; stroke:none;" d="M676 602L677 603L676 602z"/>
<path style="fill:#fbddaf; stroke:none;" d="M160 603L161 604L160 603z"/>
<path style="fill:#ffaa28; stroke:none;" d="M161 603C162.248 603.685 162.549 603.749 164 604C162.752 603.315 162.452 603.251 161 603z"/>
<path style="fill:#f6bd6d; stroke:none;" d="M253 603L254 604L253 603z"/>
<path style="fill:#fdbc58; stroke:none;" d="M160 604L161 605L160 604z"/>
<path style="fill:#f5c274; stroke:none;" d="M881.333 605.667C881.278 605.722 881.222 606.778 881.667 606.333C881.722 606.278 881.778 605.222 881.333 605.667z"/>
<path style="fill:#fdb950; stroke:none;" d="M87 606L88 607L87 606z"/>
<path style="fill:#fbdcaa; stroke:none;" d="M88 606L89 607L88 606z"/>
<path style="fill:#fbd59c; stroke:none;" d="M153 606L154 607L153 606z"/>
<path style="fill:#f4b454; stroke:none;" d="M12 607L13 608L12 607z"/>
<path style="fill:#fbdcaa; stroke:none;" d="M90 607L91 608L90 607z"/>
<path style="fill:#fdbe5c; stroke:none;" d="M91.6667 607.333C91.2223 607.778 92.2778 607.722 92.3333 607.667C92.7779 607.222 91.7222 607.278 91.6667 607.333z"/>
<path style="fill:#fcce8a; stroke:none;" d="M93.6667 607.333C93.2223 607.778 94.2778 607.722 94.3333 607.667C94.7779 607.222 93.7222 607.278 93.6667 607.333z"/>
<path style="fill:#fdca7f; stroke:none;" d="M149 607C150.248 607.685 150.548 607.749 152 608C150.752 607.315 150.452 607.251 149 607z"/>
<path style="fill:#feb443; stroke:none;" d="M95 608C96.2483 608.685 96.5485 608.749 98 609C96.7516 608.315 96.4517 608.251 95 608M144 608C145.769 608.779 147.036 608.912 149 609C147.231 608.221 145.964 608.088 144 608z"/>
<path style="fill:#f5c274; stroke:none;" d="M14 609L15 610L14 609z"/>
<path style="fill:#ffaa28; stroke:none;" d="M98 609C100.89 610.213 103.874 609.998 107 610C104.11 608.787 101.126 609.002 98 609M139 609C140.769 609.779 142.036 609.912 144 610C142.231 609.221 140.964 609.088 139 609M107 610C110.699 611.552 115.017 611 119 611L139 611C135.301 609.448 130.983 610 127 610L107 610z"/>
<path style="fill:#f5d7a8; stroke:none;" d="M879 610L880 611L879 610z"/>
<path style="fill:#f5bd6c; stroke:none;" d="M15 611L16 612L15 611z"/>
<path style="fill:#f5c275; stroke:none;" d="M241 612L242 613L241 612z"/>
<path style="fill:#f4d4a4; stroke:none;" d="M238.667 613.333C238.222 613.778 239.278 613.722 239.333 613.667C239.778 613.222 238.722 613.278 238.667 613.333z"/>
<path style="fill:#f5af47; stroke:none;" d="M835.333 613.667C835.277 613.723 835.222 614.778 835.667 614.333C835.722 614.278 835.778 613.222 835.333 613.667z"/>
<path style="fill:#f7e6cb; stroke:none;" d="M16.6667 614.333C16.2221 614.778 17.2778 614.722 17.3333 614.667C17.7777 614.222 16.7223 614.278 16.6667 614.333z"/>
<path style="fill:#f5bd6d; stroke:none;" d="M237 614L238 615L237 614z"/>
<path style="fill:#f7e9d4; stroke:none;" d="M681.667 614.333C681.222 614.778 682.278 614.722 682.333 614.667C682.778 614.222 681.722 614.278 681.667 614.333z"/>
<path style="fill:#f4d4a4; stroke:none;" d="M236 615L237 616L236 615z"/>
<path style="fill:#f4c680; stroke:none;" d="M24 623L25 624L24 623z"/>
<path style="fill:#f5bb65; stroke:none;" d="M224 623L225 624L224 623z"/>
<path style="fill:#f5c274; stroke:none;" d="M686.333 623.667C686.278 623.722 686.222 624.778 686.667 624.333C686.722 624.278 686.778 623.222 686.333 623.667z"/>
<path style="fill:#f6bd6d; stroke:none;" d="M760 623L761 624L760 623z"/>
<path style="fill:#f4c680; stroke:none;" d="M686 626L687 627L686 626z"/>
<path style="fill:#f6e2c2; stroke:none;" d="M804 628L804 631C804.696 629.446 804.696 629.554 804 628z"/>
<path style="fill:#f5d098; stroke:none;" d="M870 628L871 629L870 628z"/>
<path style="fill:#f5cb8b; stroke:none;" d="M687 629L688 630L687 629z"/>
<path style="fill:#f5dcb4; stroke:none;" d="M34 632L35 633L34 632z"/>
<path style="fill:#f4d4a4; stroke:none;" d="M212 632L213 633L212 632z"/>
<path style="fill:#f5dcb3; stroke:none;" d="M688.667 633.333C688.222 633.778 689.278 633.722 689.333 633.667C689.778 633.222 688.722 633.278 688.667 633.333z"/>
<path style="fill:#f4c680; stroke:none;" d="M761 633L762 634L761 633z"/>
<path style="fill:#f5d7a8; stroke:none;" d="M207 636L208 637L207 636z"/>
<path style="fill:#f4c988; stroke:none;" d="M803 636L804 637L803 636z"/>
<path style="fill:#f5d098; stroke:none;" d="M53 643L54 644L53 643z"/>
<path style="fill:#f5d7a8; stroke:none;" d="M194 644L195 645L194 644z"/>
<path style="fill:#f7e9d4; stroke:none;" d="M763.333 644.667C763.278 644.722 763.222 645.778 763.667 645.333C763.722 645.278 763.778 644.222 763.333 644.667z"/>
<path style="fill:#f4c680; stroke:none;" d="M62 647L63 648L62 647z"/>
<path style="fill:#f5dcb4; stroke:none;" d="M763 647L764 648L763 647z"/>
<path style="fill:#f4d4a4; stroke:none;" d="M185 648L186 649L185 648z"/>
<path style="fill:#f5dcb5; stroke:none;" d="M695 649L695 652C695.696 650.446 695.696 650.554 695 649z"/>
<path style="fill:#f5bd6b; stroke:none;" d="M861 649L862 650L861 649z"/>
<path style="fill:#f5af49; stroke:none;" d="M77 652L78 653L77 652z"/>
<path style="fill:#f5bd6d; stroke:none;" d="M78.6667 653.333C78.2223 653.778 79.2778 653.722 79.3333 653.667C79.7778 653.222 78.7223 653.278 78.6667 653.333z"/>
<path style="fill:#f5af49; stroke:none;" d="M161 653L162 654L161 653z"/>
<path style="fill:#f5d7a8; stroke:none;" d="M162 653C163.248 653.685 163.548 653.749 165 654C163.752 653.315 163.452 653.251 162 653z"/>
<path style="fill:#f7ecd8; stroke:none;" d="M152 654C154.89 655.213 157.874 654.998 161 655C158.11 653.787 155.126 654.002 152 654z"/>
<path style="fill:#f5d7a8; stroke:none;" d="M851 660L852 661L851 660z"/>
<path style="fill:#f5ce91; stroke:none;" d="M847 661L848 662L847 661z"/>
<path style="fill:#f4c57f; stroke:none;" d="M700 663L701 664L700 663z"/>
<path style="fill:#f5c275; stroke:none;" d="M809.667 663.333C809.222 663.778 810.278 663.722 810.333 663.667C810.778 663.222 809.722 663.278 809.667 663.333z"/>
<path style="fill:#f6e0bf; stroke:none;" d="M837.667 663.333C837.222 663.778 838.278 663.722 838.333 663.667C838.778 663.222 837.722 663.278 837.667 663.333z"/>
<path style="fill:#f4b352; stroke:none;" d="M832 664L833 665L832 664z"/>
<path style="fill:#f5dcb4; stroke:none;" d="M768 676L769 677L768 676z"/>
<path style="fill:#f6dfbe; stroke:none;" d="M705 682L705 685C705.696 683.446 705.696 683.554 705 682z"/>
<path style="fill:#f5af49; stroke:none;" d="M706 685L706 689C706.71 687.24 706.71 686.76 706 685z"/>
<path style="fill:#f5cf95; stroke:none;" d="M706 689L707 690L706 689z"/>
<path style="fill:#f5ba61; stroke:none;" d="M771.333 689.667C771.278 689.722 771.222 690.778 771.667 690.333C771.722 690.278 771.778 689.222 771.333 689.667z"/>
<path style="fill:#f6dfbc; stroke:none;" d="M772.667 695.333C772.222 695.778 773.278 695.722 773.333 695.667C773.778 695.222 772.722 695.278 772.667 695.333z"/>
<path style="fill:#f4d4a4; stroke:none;" d="M782 720L782 723C782.696 721.446 782.696 721.554 782 720z"/>
<path style="fill:#f5cf95; stroke:none;" d="M715.333 722.667C715.278 722.722 715.222 723.778 715.667 723.333C715.722 723.278 715.778 722.222 715.333 722.667z"/>
<path style="fill:#f5ba61; stroke:none;" d="M716 724L717 725L716 724z"/>
<path style="fill:#f4c680; stroke:none;" d="M783.667 725.333C783.222 725.778 784.278 725.722 784.333 725.667C784.778 725.222 783.722 725.278 783.667 725.333z"/>
<path style="fill:#f5af49; stroke:none;" d="M716.333 727.667C716.278 727.722 716.222 728.778 716.667 728.333C716.722 728.278 716.778 727.222 716.333 727.667z"/>
<path style="fill:#f5d098; stroke:none;" d="M716 729L717 730L716 729z"/>
<path style="fill:#f4d4a4; stroke:none;" d="M790 739L791 740L790 739z"/>
<path style="fill:#f4c988; stroke:none;" d="M792.333 743.667C792.278 743.722 792.222 744.778 792.667 744.333C792.722 744.278 792.778 743.222 792.333 743.667z"/>
<path style="fill:#f4d4a4; stroke:none;" d="M799 758L800 759L799 758z"/>
<path style="fill:#f4c680; stroke:none;" d="M801 763L802 764L801 763z"/>
<path style="fill:#f4d4a4; stroke:none;" d="M802 765L803 766L802 765M808 777L809 778L808 777z"/>
<path style="fill:#f5d7a8; stroke:none;" d="M810 779L811 780L810 779z"/>
<path style="fill:#f4c680; stroke:none;" d="M811 781L812 782L811 781z"/>
<path style="fill:#f6dfbc; stroke:none;" d="M812.333 782.667C812.278 782.722 812.222 783.778 812.667 783.333C812.722 783.278 812.778 782.222 812.333 782.667z"/>
<path style="fill:#f5d7a8; stroke:none;" d="M723 783L724 784L723 783M815 786L816 787L815 786z"/>
<path style="fill:#f5cf95; stroke:none;" d="M817 787L818 788L817 787M818 788L819 789L818 788z"/>
<path style="fill:#f4b454; stroke:none;" d="M819 789L820 790L819 789z"/>
<path style="fill:#f4c988; stroke:none;" d="M831 796L832 797L831 796z"/>
<path style="fill:#f5ba60; stroke:none;" d="M840 801L841 802L840 801z"/>
<path style="fill:#f4c680; stroke:none;" d="M841 802L842 803L841 802z"/>
<path style="fill:#f7e6cd; stroke:none;" d="M845 805C846.248 805.685 846.549 805.749 848 806C846.752 805.315 846.452 805.251 845 805z"/>
<path style="fill:#f5c275; stroke:none;" d="M726 813L727 814L726 813z"/>
<path style="fill:#f5d7a8; stroke:none;" d="M868 818L869 819L868 818z"/>
<path style="fill:#f4b454; stroke:none;" d="M869 819L870 820L869 819z"/>
<path style="fill:#f6e2c2; stroke:none;" d="M732.667 823.333C732.222 823.778 733.278 823.722 733.333 823.667C733.778 823.222 732.722 823.278 732.667 823.333z"/>
<path style="fill:#f4d39f; stroke:none;" d="M883 825C884.506 825.683 885.315 825.826 887 826C885.494 825.317 884.685 825.174 883 825z"/>
<path style="fill:#f5d9ae; stroke:none;" d="M888 826L889 827L888 826z"/>
<path style="fill:#f5d7a8; stroke:none;" d="M752 832L753 833L752 832z"/>
<path style="fill:#f7e5c9; stroke:none;" d="M754 833C756.052 833.874 757.747 833.953 760 834C757.948 833.126 756.253 833.047 754 833z"/>
<path style="fill:#f7e8d1; stroke:none;" d="M761.667 835.333C761.222 835.778 762.278 835.722 762.333 835.667C762.778 835.222 761.722 835.278 761.667 835.333z"/>
<path style="fill:#f5d098; stroke:none;" d="M923.667 835.333C923.222 835.778 924.278 835.722 924.333 835.667C924.778 835.222 923.722 835.278 923.667 835.333z"/>
<path style="fill:#f5c275; stroke:none;" d="M934 837L935 838L934 837z"/>
<path style="fill:#f5d098; stroke:none;" d="M938 838L939 839L938 838M781 842L782 843L781 842z"/>
<path style="fill:#f5cf95; stroke:none;" d="M783 842L784 843L783 842z"/>
<path style="fill:#f7e8d1; stroke:none;" d="M785.667 844.333C785.222 844.778 786.278 844.722 786.333 844.667C786.778 844.222 785.722 844.278 785.667 844.333z"/>
<path style="fill:#f5c275; stroke:none;" d="M965.667 845.333C965.222 845.778 966.278 845.722 966.333 845.667C966.778 845.222 965.722 845.278 965.667 845.333z"/>
<path style="fill:#f5dcb4; stroke:none;" d="M795 847L796 848L795 847z"/>
<path style="fill:#f6bd6b; stroke:none;" d="M977 848L978 849L977 848z"/>
<path style="fill:#f5ce91; stroke:none;" d="M979 849L980 850L979 849z"/>
<path style="fill:#f5af47; stroke:none;" d="M811 852L812 853L811 852z"/>
<path style="fill:#f5dcb4; stroke:none;" d="M812 852L813 853L812 852z"/>
<path style="fill:#f5c274; stroke:none;" d="M814 853L815 854L814 853z"/>
<path style="fill:#f5bd6b; stroke:none;" d="M992 855L993 856L992 855z"/>
<path style="fill:#f5dcb4; stroke:none;" d="M824 856L825 857L824 856z"/>
<path style="fill:#f5b95e; stroke:none;" d="M994 856L995 857L994 856z"/>
<path style="fill:#f4d4a4; stroke:none;" d="M995 856L996 857L995 856z"/>
<path style="fill:#f4c680; stroke:none;" d="M996 857L997 858L996 857z"/>
<path style="fill:#f5c274; stroke:none;" d="M840 862L841 863L840 862z"/>
<path style="fill:#f5ce91; stroke:none;" d="M1009 866L1010 867L1009 866z"/>
<path style="fill:#f5bd6b; stroke:none;" d="M876 877L877 878L876 877M877 878L878 879L877 878z"/>
<path style="fill:#f5cb8b; stroke:none;" d="M885 882L886 883L885 882z"/>
<path style="fill:#f4c988; stroke:none;" d="M1030 884L1031 885L1030 884z"/>
<path style="fill:#f5c274; stroke:none;" d="M1031 885L1032 886L1031 885z"/>
<path style="fill:#f5d7a8; stroke:none;" d="M894 887L895 888L894 887z"/>
<path style="fill:#f4d4a4; stroke:none;" d="M895 888L896 889L895 888z"/>
<path style="fill:#f4b352; stroke:none;" d="M898 889L899 890L898 889z"/>
<path style="fill:#f5bd6b; stroke:none;" d="M899 890L900 891L899 890z"/>
<path style="fill:#f5d098; stroke:none;" d="M1040 896L1041 897L1040 896z"/>
<path style="fill:#f6bd6b; stroke:none;" d="M917 899L918 900L917 899z"/>
<path style="fill:#f5ce91; stroke:none;" d="M920 901L921 902L920 901z"/>
<path style="fill:#f5af46; stroke:none;" d="M921 902L922 903L921 902z"/>
<path style="fill:#f5d098; stroke:none;" d="M922 902L923 903L922 902z"/>
<path style="fill:#f5ba62; stroke:none;" d="M923.667 903.333C923.222 903.778 924.278 903.722 924.333 903.667C924.778 903.222 923.722 903.278 923.667 903.333z"/>
<path style="fill:#f5dcb4; stroke:none;" d="M937 911L938 912L937 911z"/>
<path style="fill:#f6e0bf; stroke:none;" d="M939.667 913.333C939.222 913.778 940.278 913.722 940.333 913.667C940.778 913.222 939.722 913.278 939.667 913.333z"/>
<path style="fill:#f5b95e; stroke:none;" d="M946 918L947 919L946 918z"/>
<path style="fill:#f4b352; stroke:none;" d="M949 920L950 921L949 920z"/>
<path style="fill:#f5dcb4; stroke:none;" d="M966 930L967 931L966 930M1037 930L1038 931L1037 930M1034.67 931.333C1034.22 931.778 1035.28 931.722 1035.33 931.667C1035.78 931.222 1034.72 931.278 1034.67 931.333z"/>
<path style="fill:#f4c988; stroke:none;" d="M978 932C979.248 932.685 979.548 932.749 981 933C979.752 932.315 979.451 932.251 978 932M985 932L986 933L985 932z"/>
<path style="fill:#f4d4a4; stroke:none;" d="M1029 932C1030.51 932.683 1031.31 932.826 1033 933C1031.49 932.317 1030.69 932.174 1029 932z"/>
<path style="fill:#f8edde; stroke:none;" d="M986 933C987.506 933.683 988.315 933.826 990 934C988.494 933.317 987.685 933.174 986 933z"/>
<path style="fill:#f6edde; stroke:none;" d="M991 933C996.469 935.295 1004.1 934 1010 934C1004.53 931.705 996.901 933 991 933z"/>
<path style="fill:#f5c275; stroke:none;" d="M1021 933L1022 934L1021 933z"/>
<path style="fill:#f7ead4; stroke:none;" d="M1023 933C1024.77 933.779 1026.04 933.912 1028 934C1026.23 933.221 1024.96 933.088 1023 933z"/>
<path style="fill:#ffffff; stroke:none;" d="M1024 1024L1024 1041L1280 1041L1280 1024L1024 1024z"/>
</svg>
